<svg width="1928" height="1088" viewBox="0 0 1928 1088" fill="none" xmlns="http://www.w3.org/2000/svg">
<g filter="url(#filter0_d)">
<rect width="1920" height="1080" transform="translate(4)" fill="white"/>
<rect x="4" width="1920" height="1080" fill="#2A4254"/>
<path d="M1405 768L1448.3 843H1361.7L1405 768Z" fill="#5694C4"/>
<path d="M1448 843L1404.7 768L1491.3 768L1448 843Z" fill="#A1D2F6"/>
<path d="M1448 693L1491.3 768H1404.7L1448 693Z" fill="#5694C4"/>
<path d="M1491 768L1534.3 843H1447.7L1491 768Z" fill="#E9F5FE"/>
<path d="M1577 768L1620.3 843H1533.7L1577 768Z" fill="#316F9E"/>
<rect x="4" y="857" width="1920" height="223" fill="#C7E7FF"/>
<rect width="1920" height="16" transform="matrix(1 0 0 -1 4 857)" fill="#E9F5FE"/>
<path d="M150.94 810.604C151.03 810.604 151.117 810.578 151.191 810.529C151.265 810.48 151.322 810.411 151.356 810.33C152.04 808.727 152.582 805.676 153.209 802.142C153.932 798.066 154.751 793.445 155.983 789.976C158.176 783.81 163.674 782.648 163.728 782.64C163.787 782.628 163.842 782.605 163.891 782.573C163.94 782.54 163.982 782.499 164.015 782.45C164.048 782.402 164.071 782.347 164.082 782.29C164.093 782.233 164.093 782.175 164.081 782.118C164.069 782.061 164.047 782.007 164.014 781.959C163.981 781.911 163.938 781.87 163.889 781.838C163.84 781.806 163.785 781.783 163.727 781.772C163.668 781.761 163.609 781.761 163.551 781.773C163.304 781.82 157.499 783.029 155.131 789.684C153.872 793.221 153.046 797.88 152.317 801.992C151.7 805.47 151.166 808.476 150.51 809.991C150.485 810.045 150.472 810.104 150.471 810.163C150.47 810.223 150.481 810.282 150.504 810.337C150.527 810.392 150.56 810.442 150.603 810.483C150.646 810.525 150.697 810.558 150.754 810.581C150.813 810.602 150.877 810.61 150.94 810.604V810.604Z" fill="white"/>
<path d="M151.805 811.45C151.894 811.45 151.982 811.424 152.056 811.376C152.131 811.328 152.189 811.259 152.224 811.179C152.908 809.573 153.447 806.522 154.073 802.988C154.796 798.912 155.616 794.293 156.851 790.821C159.05 784.632 164.539 783.497 164.593 783.485C164.653 783.476 164.71 783.454 164.761 783.422C164.812 783.39 164.856 783.349 164.89 783.3C164.924 783.251 164.948 783.196 164.96 783.138C164.973 783.08 164.973 783.021 164.961 782.963C164.949 782.905 164.925 782.849 164.891 782.801C164.857 782.752 164.813 782.71 164.762 782.678C164.712 782.646 164.655 782.624 164.595 782.614C164.535 782.604 164.474 782.606 164.415 782.619C164.171 782.666 158.363 783.875 155.995 790.533C154.739 794.069 153.914 798.729 153.185 802.838C152.567 806.319 152.034 809.322 151.377 810.837C151.353 810.891 151.34 810.949 151.339 811.009C151.338 811.068 151.349 811.126 151.371 811.181C151.394 811.236 151.427 811.286 151.47 811.328C151.512 811.37 151.563 811.404 151.618 811.427C151.679 811.446 151.742 811.454 151.805 811.45V811.45Z" fill="white"/>
<path d="M149.41 817.118H187.256C187.32 817.117 187.384 817.104 187.443 817.078C187.501 817.052 187.554 817.014 187.597 816.968C187.639 816.921 187.671 816.865 187.689 816.805C187.708 816.745 187.713 816.682 187.705 816.62C186.349 805.865 182.105 796.822 176.345 792.392C175.974 791.224 175.882 789.987 176.076 788.778C176.271 787.569 176.746 786.42 177.466 785.419C177.517 785.345 177.544 785.258 177.544 785.168C177.544 785.079 177.517 784.992 177.466 784.918C176.632 783.709 175.507 782.719 174.191 782.034C172.875 781.35 171.407 780.992 169.916 780.992C165.048 780.992 159.604 784.741 159.586 789.76C159.505 790.073 158.683 791.511 157.839 793.029C155.818 796.613 152.76 802.03 151.287 806.342C150.163 809.688 149.382 813.135 148.955 816.632C148.948 816.694 148.953 816.757 148.972 816.817C148.991 816.877 149.023 816.932 149.066 816.979C149.108 817.026 149.16 817.064 149.218 817.09C149.277 817.116 149.34 817.129 149.404 817.13L149.41 817.118ZM186.765 816.234H149.916C150.345 812.968 151.092 809.749 152.145 806.622C153.591 802.39 156.622 797.014 158.628 793.456C160.135 790.786 160.49 790.126 160.49 789.787C160.49 785.26 165.467 781.876 169.916 781.876C171.208 781.876 172.482 782.175 173.633 782.747C174.785 783.32 175.782 784.151 176.544 785.171C175.579 786.614 175.067 788.302 175.071 790.026C175.072 790.966 175.224 791.9 175.522 792.793C175.551 792.878 175.604 792.952 175.676 793.005C181.225 797.197 185.34 805.856 186.744 816.234H186.765Z" fill="white"/>
<path d="M171.013 787.364C171.069 787.365 171.126 787.355 171.178 787.335L182.4 783.032C182.505 782.991 182.591 782.914 182.641 782.815C182.691 782.717 182.701 782.603 182.67 782.497C182.638 782.391 182.568 782.3 182.471 782.243C182.375 782.185 182.261 782.165 182.15 782.186L175.824 783.365C175.766 783.376 175.711 783.398 175.661 783.429L170.766 786.568C170.685 786.621 170.624 786.697 170.591 786.786C170.558 786.875 170.555 786.972 170.582 787.063C170.61 787.154 170.667 787.234 170.744 787.291C170.822 787.347 170.916 787.378 171.013 787.379V787.364ZM177.574 783.936L174.929 784.947L176.083 784.211L177.574 783.936Z" fill="white"/>
<path d="M175.92 784.234H176.005L182.331 783.055C182.451 783.044 182.561 782.987 182.638 782.896C182.715 782.806 182.752 782.689 182.74 782.572C182.729 782.455 182.671 782.346 182.578 782.271C182.486 782.196 182.366 782.16 182.246 782.171H173.453C173.34 782.155 173.225 782.181 173.132 782.245C173.038 782.308 172.972 782.404 172.947 782.512C172.922 782.621 172.941 782.735 172.998 782.831C173.056 782.928 173.148 782.999 173.257 783.032L175.715 784.211C175.781 784.234 175.851 784.242 175.92 784.234V784.234ZM177.408 783.07L175.983 783.332L175.429 783.07H177.408Z" fill="white"/>
<path d="M159.234 791.9H165.647C165.727 791.9 165.805 791.879 165.873 791.841C165.942 791.802 165.999 791.746 166.039 791.679C166.079 791.612 166.1 791.536 166.1 791.458C166.1 791.38 166.079 791.304 166.039 791.237L162.286 784.877C162.25 784.814 162.199 784.762 162.137 784.723C162.076 784.685 162.006 784.661 161.933 784.656C161.861 784.65 161.788 784.661 161.721 784.688C161.654 784.715 161.594 784.758 161.547 784.812C160.316 786.182 159.621 787.936 159.586 789.76C159.375 790.27 159.124 790.762 158.836 791.234C158.8 791.302 158.782 791.377 158.785 791.453C158.787 791.529 158.809 791.603 158.849 791.669C158.889 791.734 158.945 791.788 159.012 791.826C159.08 791.864 159.156 791.885 159.234 791.885V791.9ZM164.864 791.016H159.984C160.409 790.217 160.49 789.97 160.49 789.787C160.508 788.38 160.979 787.014 161.837 785.885L164.864 791.016Z" fill="white"/>
<path d="M159.372 817.118H187.045C187.11 817.117 187.173 817.104 187.232 817.078C187.29 817.052 187.343 817.014 187.386 816.968C187.428 816.92 187.459 816.865 187.478 816.805C187.497 816.745 187.502 816.682 187.494 816.62C186.464 808.824 183.897 802.307 178.912 794.821C178.184 793.767 177.202 792.903 176.053 792.306C174.905 791.71 173.624 791.398 172.323 791.399C170.136 791.399 168.708 792.092 167.087 793.209C165.994 793.969 164.87 795.237 163.747 796.976L163.683 797.073C162.358 799.056 162.057 802.101 161.737 805.325C161.472 808.028 161.195 810.825 160.327 813.363C160.156 813.811 159.955 814.247 159.725 814.669C159.389 815.272 159.122 815.91 158.927 816.57C158.91 816.635 158.909 816.702 158.924 816.768C158.938 816.833 158.968 816.895 159.011 816.947C159.054 817.001 159.109 817.044 159.171 817.074C159.234 817.103 159.303 817.118 159.372 817.118V817.118ZM186.53 816.234H159.99C160.144 815.842 160.345 815.45 160.541 815.055C160.788 814.596 161.002 814.121 161.183 813.634V813.634C162.087 811.002 162.367 808.155 162.638 805.402C162.939 802.29 163.24 799.348 164.445 797.547L164.518 797.438C165.578 795.797 166.627 794.615 167.618 793.922C169.371 792.705 170.603 792.274 172.329 792.274C173.481 792.276 174.615 792.555 175.631 793.085C176.647 793.615 177.515 794.381 178.158 795.316C182.954 802.511 185.476 808.797 186.53 816.234Z" fill="white"/>
<path d="M176.239 849.937C179.189 849.937 182.174 849.112 182.174 847.532C182.174 845.952 179.189 845.124 176.239 845.124C173.29 845.124 170.305 845.952 170.305 847.532C170.305 849.112 173.29 849.937 176.239 849.937ZM176.239 846.008C179.309 846.008 181.27 846.91 181.27 847.532C181.27 848.154 179.309 849.053 176.239 849.053C173.17 849.053 171.209 848.154 171.209 847.532C171.209 846.91 173.167 846.011 176.239 846.011V846.008Z" fill="white"/>
<path d="M169.982 851.293C172.932 851.293 175.917 850.464 175.917 848.885C175.917 847.305 172.932 846.477 169.982 846.477C167.033 846.477 164.048 847.305 164.048 848.885C164.048 850.464 167.033 851.293 169.982 851.293ZM169.982 847.361C173.055 847.361 175.013 848.263 175.013 848.885C175.013 849.507 173.055 850.408 169.982 850.408C166.91 850.408 164.951 849.507 164.951 848.885C164.951 848.263 166.913 847.361 169.982 847.361V847.361Z" fill="white"/>
<path d="M188.503 831.248C188.682 831.252 188.858 831.208 189.012 831.121C190.799 830.104 189.72 823.579 189.356 822.016C189.247 821.548 189.142 821.132 189.055 820.723C188.621 818.992 188.247 817.498 187.783 813.059C186.66 802.343 178.854 794.786 178.776 794.703C178.712 794.642 178.632 794.601 178.545 794.585C178.457 794.568 178.367 794.578 178.285 794.611C178.203 794.645 178.133 794.702 178.083 794.774C178.034 794.846 178.008 794.931 178.008 795.019C178.008 796.021 178.041 819.635 180.662 823.543C182.081 825.677 186.331 831.248 188.503 831.248ZM186.871 813.151C187.344 817.648 187.723 819.169 188.163 820.932C188.265 821.333 188.368 821.748 188.464 822.214C189.265 825.662 189.308 829.924 188.546 830.357C187.901 830.72 184.439 827.602 181.394 823.06C179.511 820.233 178.933 804.842 178.902 796.147C180.873 798.334 185.991 804.751 186.871 813.151V813.151Z" fill="white"/>
<path d="M168.744 850.37C171.765 850.374 174.748 849.723 177.481 848.463C181.397 846.621 184.162 843.612 185.238 839.995L185.771 838.227C187.901 831.153 188.783 828.241 187.612 816.531C186.548 805.856 184.846 803.424 181.12 798.099C180.475 797.182 179.749 796.141 178.963 794.965C178.931 794.915 178.89 794.871 178.841 794.836C178.792 794.802 178.736 794.777 178.677 794.763C178.618 794.75 178.557 794.748 178.498 794.758C178.438 794.768 178.381 794.789 178.33 794.821C176.447 795.926 174.589 797.114 172.79 798.264C169.332 800.477 165.753 802.764 161.99 804.453C161.919 804.486 161.857 804.536 161.812 804.599C161.766 804.662 161.739 804.736 161.731 804.813L161.686 805.24C161.421 807.937 161.144 810.725 160.279 813.257C160.156 813.504 158.899 813.693 158.222 813.793C156.869 813.997 155.592 814.191 155.351 815.002C155.025 815.789 150.296 827.537 152.92 836.031C154.92 842.515 156.649 846.936 162.216 849.179C164.292 849.988 166.51 850.393 168.744 850.37V850.37ZM178.433 795.803C179.131 796.84 179.782 797.765 180.361 798.594C183.997 803.79 185.656 806.163 186.687 816.611C187.838 828.15 187.03 830.823 184.879 837.971L184.346 839.739C183.06 844.063 179.677 846.432 177.065 847.659C172.495 849.804 166.801 850.078 162.56 848.363C157.345 846.25 155.766 842.2 153.781 835.775C151.214 827.466 156.146 815.438 156.191 815.311C156.2 815.292 156.207 815.272 156.212 815.252C156.282 814.981 157.734 814.763 158.354 814.663C159.707 814.459 160.873 814.283 161.132 813.531C162.035 810.905 162.31 808.064 162.581 805.32L162.599 805.143C166.334 803.433 169.862 801.176 173.278 798.992C174.965 797.939 176.691 796.837 178.433 795.803Z" fill="white"/>
<path d="M159.372 817.118H187.045C187.11 817.117 187.173 817.104 187.232 817.078C187.29 817.052 187.343 817.014 187.386 816.968C187.428 816.92 187.459 816.865 187.478 816.805C187.497 816.745 187.502 816.682 187.494 816.62C186.464 808.824 183.897 802.307 178.912 794.821C178.184 793.767 177.202 792.903 176.053 792.306C174.905 791.71 173.624 791.398 172.323 791.399C170.136 791.399 168.708 792.092 167.087 793.209C165.994 793.969 164.87 795.237 163.747 796.976L163.683 797.073C162.358 799.056 162.057 802.101 161.737 805.325C161.472 808.028 161.195 810.825 160.327 813.363C160.156 813.811 159.955 814.247 159.725 814.669C159.389 815.272 159.122 815.91 158.927 816.57C158.91 816.635 158.909 816.702 158.924 816.768C158.938 816.833 158.968 816.895 159.011 816.947C159.054 817.001 159.109 817.044 159.171 817.074C159.234 817.103 159.303 817.118 159.372 817.118V817.118ZM186.53 816.234H159.99C160.144 815.842 160.345 815.45 160.541 815.055C160.788 814.596 161.002 814.121 161.183 813.634V813.634C162.087 811.002 162.367 808.155 162.638 805.402C162.939 802.29 163.24 799.348 164.445 797.547L164.518 797.438C165.578 795.797 166.627 794.615 167.618 793.922C169.371 792.705 170.603 792.274 172.329 792.274C173.481 792.276 174.615 792.555 175.631 793.085C176.647 793.615 177.515 794.381 178.158 795.316C182.954 802.511 185.476 808.797 186.53 816.234Z" fill="white"/>
<path d="M153.658 837.072C153.69 837.076 153.722 837.076 153.754 837.072C153.857 837.05 153.949 836.994 154.014 836.913C154.079 836.833 154.113 836.732 154.11 836.629C154.11 836.55 153.938 828.415 155.438 823.885C155.541 823.59 155.631 823.278 155.712 822.98C155.691 823.213 155.667 823.455 155.64 823.702C155.438 825.63 155.167 827.192 154.929 828.571C154.42 831.519 154.082 833.464 155.037 835.604C155.405 836.42 156.029 836.388 156.279 836.335C158.661 835.848 162.855 826.199 162.849 819.785C162.849 810.451 161.487 805.287 161.43 805.072L158.047 794.402L158.327 793.904C158.36 793.854 158.382 793.798 158.392 793.739C158.402 793.679 158.399 793.619 158.385 793.561C158.37 793.503 158.344 793.448 158.307 793.401C158.27 793.353 158.224 793.313 158.171 793.283C158.118 793.253 158.059 793.235 157.998 793.228C157.938 793.221 157.876 793.226 157.817 793.243C157.759 793.26 157.704 793.288 157.657 793.327C157.61 793.365 157.572 793.412 157.544 793.465C155.866 796.442 152.745 801.983 151.281 806.263C151.1 806.79 150.934 807.247 150.778 807.674C150.01 809.779 149.503 811.167 148.97 816.517C148.118 824.822 153.055 836.308 153.266 836.792C153.297 836.87 153.351 836.938 153.42 836.987C153.49 837.037 153.572 837.066 153.658 837.072V837.072ZM157.441 795.469L160.556 805.302C160.556 805.334 161.936 810.566 161.939 819.773C161.939 826.208 157.7 835.129 156.089 835.459C156.047 835.459 155.971 835.483 155.86 835.235C155.013 833.34 155.315 831.595 155.815 828.707C156.056 827.316 156.327 825.736 156.535 823.782C157.173 817.731 156.303 816.375 156.2 816.24C156.14 816.161 156.056 816.104 155.959 816.077C155.862 816.051 155.759 816.057 155.666 816.094C155.574 816.131 155.496 816.197 155.446 816.283C155.396 816.368 155.376 816.467 155.39 816.564C155.614 818.939 155.336 821.334 154.574 823.599C153.525 826.765 153.263 831.46 153.206 834.272C151.799 830.496 149.226 822.582 149.838 816.614C150.377 811.365 150.868 810.015 151.615 807.972C151.772 807.539 151.941 807.088 152.124 806.543C153.326 803.006 155.736 798.552 157.441 795.469Z" fill="white"/>
<path d="M176.239 849.937C179.189 849.937 182.174 849.112 182.174 847.532C182.174 845.952 179.189 845.124 176.239 845.124C173.29 845.124 170.305 845.952 170.305 847.532C170.305 849.112 173.29 849.937 176.239 849.937ZM176.239 846.008C179.309 846.008 181.27 846.91 181.27 847.532C181.27 848.154 179.309 849.053 176.239 849.053C173.17 849.053 171.209 848.154 171.209 847.532C171.209 846.91 173.167 846.011 176.239 846.011V846.008Z" fill="white"/>
<path d="M169.982 851.293C172.932 851.293 175.917 850.464 175.917 848.885C175.917 847.305 172.932 846.477 169.982 846.477C167.033 846.477 164.048 847.305 164.048 848.885C164.048 850.464 167.033 851.293 169.982 851.293ZM169.982 847.361C173.055 847.361 175.013 848.263 175.013 848.885C175.013 849.507 173.055 850.408 169.982 850.408C166.91 850.408 164.951 849.507 164.951 848.885C164.951 848.263 166.913 847.361 169.982 847.361V847.361Z" fill="white"/>
<path d="M188.503 831.248C188.682 831.252 188.858 831.208 189.012 831.121C190.799 830.104 189.72 823.579 189.356 822.016C189.247 821.548 189.142 821.132 189.055 820.723C188.621 818.992 188.247 817.498 187.783 813.059C186.66 802.343 178.854 794.786 178.776 794.703C178.712 794.642 178.632 794.601 178.545 794.585C178.457 794.568 178.367 794.578 178.285 794.611C178.203 794.645 178.133 794.702 178.083 794.774C178.034 794.846 178.008 794.931 178.008 795.019C178.008 796.021 178.041 819.635 180.662 823.543C182.081 825.677 186.331 831.248 188.503 831.248ZM186.871 813.151C187.344 817.648 187.723 819.169 188.163 820.932C188.265 821.333 188.368 821.748 188.464 822.214C189.265 825.662 189.308 829.924 188.546 830.357C187.901 830.72 184.439 827.602 181.394 823.06C179.511 820.233 178.933 804.842 178.902 796.147C180.873 798.334 185.991 804.751 186.871 813.151V813.151Z" fill="white"/>
<path d="M168.744 850.37C171.765 850.374 174.748 849.723 177.481 848.463C181.397 846.621 184.162 843.612 185.238 839.995L185.771 838.227C187.901 831.153 188.783 828.241 187.612 816.531C186.548 805.856 184.846 803.424 181.12 798.099C180.475 797.182 179.749 796.141 178.963 794.965C178.931 794.915 178.89 794.871 178.841 794.836C178.792 794.802 178.736 794.777 178.677 794.763C178.618 794.75 178.557 794.748 178.498 794.758C178.438 794.768 178.381 794.789 178.33 794.821C176.447 795.926 174.589 797.114 172.79 798.264C169.332 800.477 165.753 802.764 161.99 804.453C161.919 804.486 161.857 804.536 161.812 804.599C161.766 804.662 161.739 804.736 161.731 804.813L161.686 805.24C161.421 807.937 161.144 810.725 160.279 813.257C160.156 813.504 158.899 813.693 158.222 813.793C156.869 813.997 155.592 814.191 155.351 815.002C155.025 815.789 150.296 827.537 152.92 836.031C154.92 842.515 156.649 846.936 162.216 849.179C164.292 849.988 166.51 850.393 168.744 850.37V850.37ZM178.433 795.803C179.131 796.84 179.782 797.765 180.361 798.594C183.997 803.79 185.656 806.163 186.687 816.611C187.838 828.15 187.03 830.823 184.879 837.971L184.346 839.739C183.06 844.063 179.677 846.432 177.065 847.659C172.495 849.804 166.801 850.078 162.56 848.363C157.345 846.25 155.766 842.2 153.781 835.775C151.214 827.466 156.146 815.438 156.191 815.311C156.2 815.292 156.207 815.272 156.212 815.252C156.282 814.981 157.734 814.763 158.354 814.663C159.707 814.459 160.873 814.283 161.132 813.531C162.035 810.905 162.31 808.064 162.581 805.32L162.599 805.143C166.334 803.433 169.862 801.176 173.278 798.992C174.965 797.939 176.691 796.837 178.433 795.803Z" fill="white"/>
<path d="M159.372 817.118H187.045C187.11 817.117 187.173 817.104 187.232 817.078C187.29 817.052 187.343 817.014 187.386 816.968C187.428 816.92 187.459 816.865 187.478 816.805C187.497 816.745 187.502 816.682 187.494 816.62C186.464 808.824 183.897 802.307 178.912 794.821C178.184 793.767 177.202 792.903 176.053 792.306C174.905 791.71 173.624 791.398 172.323 791.399C170.136 791.399 168.708 792.092 167.087 793.209C165.994 793.969 164.87 795.237 163.747 796.976L163.683 797.073C162.358 799.056 162.057 802.101 161.737 805.325C161.472 808.028 161.195 810.825 160.327 813.363C160.156 813.811 159.955 814.247 159.725 814.669C159.389 815.272 159.122 815.91 158.927 816.57C158.91 816.635 158.909 816.702 158.924 816.768C158.938 816.833 158.968 816.895 159.011 816.947C159.054 817.001 159.109 817.044 159.171 817.074C159.234 817.103 159.303 817.118 159.372 817.118V817.118ZM186.53 816.234H159.99C160.144 815.842 160.345 815.45 160.541 815.055C160.788 814.596 161.002 814.121 161.183 813.634V813.634C162.087 811.002 162.367 808.155 162.638 805.402C162.939 802.29 163.24 799.348 164.445 797.547L164.518 797.438C165.578 795.797 166.627 794.615 167.618 793.922C169.371 792.705 170.603 792.274 172.329 792.274C173.481 792.276 174.615 792.555 175.631 793.085C176.647 793.615 177.515 794.381 178.158 795.316C182.954 802.511 185.476 808.797 186.53 816.234Z" fill="white"/>
<path d="M153.658 837.072C153.69 837.076 153.722 837.076 153.754 837.072C153.857 837.05 153.949 836.994 154.014 836.913C154.079 836.833 154.113 836.732 154.11 836.629C154.11 836.55 153.938 828.415 155.438 823.885C155.541 823.59 155.631 823.278 155.712 822.98C155.691 823.213 155.667 823.455 155.64 823.702C155.438 825.63 155.167 827.192 154.929 828.571C154.42 831.519 154.082 833.464 155.037 835.604C155.405 836.42 156.029 836.388 156.279 836.335C158.661 835.848 162.855 826.199 162.849 819.785C162.849 810.451 161.487 805.287 161.43 805.072L158.047 794.402L158.327 793.904C158.36 793.854 158.382 793.798 158.392 793.739C158.402 793.679 158.399 793.619 158.385 793.561C158.37 793.503 158.344 793.448 158.307 793.401C158.27 793.353 158.224 793.313 158.171 793.283C158.118 793.253 158.059 793.235 157.998 793.228C157.938 793.221 157.876 793.226 157.817 793.243C157.759 793.26 157.704 793.288 157.657 793.327C157.61 793.365 157.572 793.412 157.544 793.465C155.866 796.442 152.745 801.983 151.281 806.263C151.1 806.79 150.934 807.247 150.778 807.674C150.01 809.779 149.503 811.167 148.97 816.517C148.118 824.822 153.055 836.308 153.266 836.792C153.297 836.87 153.351 836.938 153.42 836.987C153.49 837.037 153.572 837.066 153.658 837.072V837.072ZM157.441 795.469L160.556 805.302C160.556 805.334 161.936 810.566 161.939 819.773C161.939 826.208 157.7 835.129 156.089 835.459C156.047 835.459 155.971 835.483 155.86 835.235C155.013 833.34 155.315 831.595 155.815 828.707C156.056 827.316 156.327 825.736 156.535 823.782C157.173 817.731 156.303 816.375 156.2 816.24C156.14 816.161 156.056 816.104 155.959 816.077C155.862 816.051 155.759 816.057 155.666 816.094C155.574 816.131 155.496 816.197 155.446 816.283C155.396 816.368 155.376 816.467 155.39 816.564C155.614 818.939 155.336 821.334 154.574 823.599C153.525 826.765 153.263 831.46 153.206 834.272C151.799 830.496 149.226 822.582 149.838 816.614C150.377 811.365 150.868 810.015 151.615 807.972C151.772 807.539 151.941 807.088 152.124 806.543C153.326 803.006 155.736 798.552 157.441 795.469Z" fill="white"/>
<path d="M176.239 849.937C179.189 849.937 182.174 849.112 182.174 847.532C182.174 845.952 179.189 845.124 176.239 845.124C173.29 845.124 170.305 845.952 170.305 847.532C170.305 849.112 173.29 849.937 176.239 849.937ZM176.239 846.008C179.309 846.008 181.27 846.91 181.27 847.532C181.27 848.154 179.309 849.053 176.239 849.053C173.17 849.053 171.209 848.154 171.209 847.532C171.209 846.91 173.167 846.011 176.239 846.011V846.008Z" fill="white"/>
<path d="M169.982 851.293C172.932 851.293 175.917 850.464 175.917 848.885C175.917 847.305 172.932 846.477 169.982 846.477C167.033 846.477 164.048 847.305 164.048 848.885C164.048 850.464 167.033 851.293 169.982 851.293ZM169.982 847.361C173.055 847.361 175.013 848.263 175.013 848.885C175.013 849.507 173.055 850.408 169.982 850.408C166.91 850.408 164.951 849.507 164.951 848.885C164.951 848.263 166.913 847.361 169.982 847.361V847.361Z" fill="white"/>
<path d="M188.503 831.248C188.682 831.252 188.858 831.208 189.012 831.121C190.799 830.104 189.72 823.579 189.356 822.016C189.247 821.548 189.142 821.132 189.055 820.723C188.621 818.992 188.247 817.498 187.783 813.059C186.66 802.343 178.854 794.786 178.776 794.703C178.712 794.642 178.632 794.601 178.545 794.585C178.457 794.568 178.367 794.578 178.285 794.611C178.203 794.645 178.133 794.702 178.083 794.774C178.034 794.846 178.008 794.931 178.008 795.019C178.008 796.021 178.041 819.635 180.662 823.543C182.081 825.677 186.331 831.248 188.503 831.248ZM186.871 813.151C187.344 817.648 187.723 819.169 188.163 820.932C188.265 821.333 188.368 821.748 188.464 822.214C189.265 825.662 189.308 829.924 188.546 830.357C187.901 830.72 184.439 827.602 181.394 823.06C179.511 820.233 178.933 804.842 178.902 796.147C180.873 798.334 185.991 804.751 186.871 813.151V813.151Z" fill="white"/>
<path d="M168.744 850.37C171.765 850.374 174.748 849.723 177.481 848.463C181.397 846.621 184.162 843.612 185.238 839.995L185.771 838.227C187.901 831.153 188.783 828.241 187.612 816.531C186.548 805.856 184.846 803.424 181.12 798.099C180.475 797.182 179.749 796.141 178.963 794.965C178.931 794.915 178.89 794.871 178.841 794.836C178.792 794.802 178.736 794.777 178.677 794.763C178.618 794.75 178.557 794.748 178.498 794.758C178.438 794.768 178.381 794.789 178.33 794.821C176.447 795.926 174.589 797.114 172.79 798.264C169.332 800.477 165.753 802.764 161.99 804.453C161.919 804.486 161.857 804.536 161.812 804.599C161.766 804.662 161.739 804.736 161.731 804.813L161.686 805.24C161.421 807.937 161.144 810.725 160.279 813.257C160.156 813.504 158.899 813.693 158.222 813.793C156.869 813.997 155.592 814.191 155.351 815.002C155.025 815.789 150.296 827.537 152.92 836.031C154.92 842.515 156.649 846.936 162.216 849.179C164.292 849.988 166.51 850.393 168.744 850.37V850.37ZM178.433 795.803C179.131 796.84 179.782 797.765 180.361 798.594C183.997 803.79 185.656 806.163 186.687 816.611C187.838 828.15 187.03 830.823 184.879 837.971L184.346 839.739C183.06 844.063 179.677 846.432 177.065 847.659C172.495 849.804 166.801 850.078 162.56 848.363C157.345 846.25 155.766 842.2 153.781 835.775C151.214 827.466 156.146 815.438 156.191 815.311C156.2 815.292 156.207 815.272 156.212 815.252C156.282 814.981 157.734 814.763 158.354 814.663C159.707 814.459 160.873 814.283 161.132 813.531C162.035 810.905 162.31 808.064 162.581 805.32L162.599 805.143C166.334 803.433 169.862 801.176 173.278 798.992C174.965 797.939 176.691 796.837 178.433 795.803Z" fill="white"/>
<path d="M159.372 817.118H187.045C187.11 817.117 187.173 817.104 187.232 817.078C187.29 817.052 187.343 817.014 187.386 816.968C187.428 816.92 187.459 816.865 187.478 816.805C187.497 816.745 187.502 816.682 187.494 816.62C186.464 808.824 183.897 802.307 178.912 794.821C178.184 793.767 177.202 792.903 176.053 792.306C174.905 791.71 173.624 791.398 172.323 791.399C170.136 791.399 168.708 792.092 167.087 793.209C165.994 793.969 164.87 795.237 163.747 796.976L163.683 797.073C162.358 799.056 162.057 802.101 161.737 805.325C161.472 808.028 161.195 810.825 160.327 813.363C160.156 813.811 159.955 814.247 159.725 814.669C159.389 815.272 159.122 815.91 158.927 816.57C158.91 816.635 158.909 816.702 158.924 816.768C158.938 816.833 158.968 816.895 159.011 816.947C159.054 817.001 159.109 817.044 159.171 817.074C159.234 817.103 159.303 817.118 159.372 817.118V817.118ZM186.53 816.234H159.99C160.144 815.842 160.345 815.45 160.541 815.055C160.788 814.596 161.002 814.121 161.183 813.634V813.634C162.087 811.002 162.367 808.155 162.638 805.402C162.939 802.29 163.24 799.348 164.445 797.547L164.518 797.438C165.578 795.797 166.627 794.615 167.618 793.922C169.371 792.705 170.603 792.274 172.329 792.274C173.481 792.276 174.615 792.555 175.631 793.085C176.647 793.615 177.515 794.381 178.158 795.316C182.954 802.511 185.476 808.797 186.53 816.234Z" fill="white"/>
<path d="M153.658 837.072C153.69 837.076 153.722 837.076 153.754 837.072C153.857 837.05 153.949 836.994 154.014 836.913C154.079 836.833 154.113 836.732 154.11 836.629C154.11 836.55 153.938 828.415 155.438 823.885C155.541 823.59 155.631 823.278 155.712 822.98C155.691 823.213 155.667 823.455 155.64 823.702C155.438 825.63 155.167 827.192 154.929 828.571C154.42 831.519 154.082 833.464 155.037 835.604C155.405 836.42 156.029 836.388 156.279 836.335C158.661 835.848 162.855 826.199 162.849 819.785C162.849 810.451 161.487 805.287 161.43 805.072L158.047 794.402L158.327 793.904C158.36 793.854 158.382 793.798 158.392 793.739C158.402 793.679 158.399 793.619 158.385 793.561C158.37 793.503 158.344 793.448 158.307 793.401C158.27 793.353 158.224 793.313 158.171 793.283C158.118 793.253 158.059 793.235 157.998 793.228C157.938 793.221 157.876 793.226 157.817 793.243C157.759 793.26 157.704 793.288 157.657 793.327C157.61 793.365 157.572 793.412 157.544 793.465C155.866 796.442 152.745 801.983 151.281 806.263C151.1 806.79 150.934 807.247 150.778 807.674C150.01 809.779 149.503 811.167 148.97 816.517C148.118 824.822 153.055 836.308 153.266 836.792C153.297 836.87 153.351 836.938 153.42 836.987C153.49 837.037 153.572 837.066 153.658 837.072V837.072ZM157.441 795.469L160.556 805.302C160.556 805.334 161.936 810.566 161.939 819.773C161.939 826.208 157.7 835.129 156.089 835.459C156.047 835.459 155.971 835.483 155.86 835.235C155.013 833.34 155.315 831.595 155.815 828.707C156.056 827.316 156.327 825.736 156.535 823.782C157.173 817.731 156.303 816.375 156.2 816.24C156.14 816.161 156.056 816.104 155.959 816.077C155.862 816.051 155.759 816.057 155.666 816.094C155.574 816.131 155.496 816.197 155.446 816.283C155.396 816.368 155.376 816.467 155.39 816.564C155.614 818.939 155.336 821.334 154.574 823.599C153.525 826.765 153.263 831.46 153.206 834.272C151.799 830.496 149.226 822.582 149.838 816.614C150.377 811.365 150.868 810.015 151.615 807.972C151.772 807.539 151.941 807.088 152.124 806.543C153.326 803.006 155.736 798.552 157.441 795.469Z" fill="white"/>
<path d="M162.927 784.538C162.98 784.538 163.032 784.529 163.081 784.511C163.114 784.511 166.44 783.315 168.145 782.849C169.919 782.36 170.537 781.906 170.603 781.856C170.678 781.797 170.732 781.718 170.757 781.628C170.783 781.538 170.778 781.442 170.745 781.355L169.949 779.291C169.92 779.215 169.87 779.149 169.805 779.098C169.739 779.048 169.661 779.017 169.579 779.007C169.496 778.998 169.413 779.011 169.337 779.045C169.262 779.079 169.197 779.133 169.151 779.2L169.003 779.415L167.063 777.544C167.007 777.489 166.937 777.45 166.86 777.43C166.784 777.41 166.703 777.411 166.627 777.432C166.55 777.453 166.481 777.493 166.426 777.548C166.37 777.603 166.33 777.672 166.31 777.747L165.524 780.694L162.228 781.788C162.116 781.822 162.022 781.897 161.966 781.998C161.91 782.099 161.896 782.217 161.927 782.327L162.49 784.211C162.508 784.269 162.538 784.323 162.577 784.37C162.617 784.416 162.667 784.455 162.722 784.482C162.785 784.516 162.855 784.536 162.927 784.538V784.538ZM169.766 781.319C169.168 781.606 168.542 781.833 167.898 781.997C166.527 782.374 164.211 783.176 163.228 783.518L162.927 782.489L166.045 781.458C166.116 781.436 166.18 781.398 166.233 781.346C166.285 781.295 166.324 781.232 166.346 781.163L166.997 778.72L168.768 780.429C168.815 780.475 168.872 780.51 168.935 780.531C168.997 780.553 169.064 780.56 169.13 780.553C169.245 780.544 169.352 780.494 169.431 780.411L169.766 781.319Z" fill="white"/>
<path d="M152.673 812.299C152.762 812.299 152.849 812.272 152.923 812.223C152.997 812.175 153.054 812.106 153.088 812.025C153.772 810.419 154.314 807.368 154.941 803.837C155.664 799.761 156.483 795.139 157.715 791.67C159.915 785.481 165.403 784.343 165.461 784.334C165.58 784.311 165.686 784.243 165.754 784.143C165.822 784.044 165.847 783.923 165.824 783.805C165.8 783.688 165.73 783.585 165.628 783.518C165.527 783.452 165.403 783.427 165.283 783.45C165.036 783.5 159.228 784.706 156.863 791.364C155.604 794.901 154.778 799.56 154.049 803.672C153.432 807.15 152.898 810.156 152.242 811.671C152.217 811.725 152.204 811.784 152.203 811.843C152.202 811.903 152.213 811.962 152.236 812.017C152.259 812.072 152.293 812.122 152.335 812.163C152.378 812.205 152.429 812.238 152.486 812.261C152.544 812.287 152.608 812.3 152.673 812.299V812.299Z" fill="white"/>
<path d="M153.537 813.145C153.626 813.145 153.713 813.119 153.787 813.071C153.861 813.022 153.919 812.954 153.953 812.874C154.637 811.267 155.179 808.217 155.806 804.683C156.529 800.607 157.348 795.988 158.583 792.516C160.779 786.327 166.271 785.192 166.325 785.18C166.385 785.17 166.442 785.149 166.493 785.117C166.544 785.085 166.588 785.044 166.622 784.995C166.656 784.946 166.68 784.891 166.693 784.833C166.705 784.775 166.705 784.715 166.693 784.657C166.681 784.599 166.657 784.544 166.623 784.495C166.589 784.446 166.545 784.405 166.495 784.373C166.444 784.341 166.387 784.319 166.327 784.309C166.268 784.299 166.207 784.3 166.148 784.314C165.901 784.361 160.095 785.569 157.728 792.224C156.471 795.761 155.643 800.424 154.914 804.533C154.311 808.013 153.766 811.017 153.106 812.532C153.078 812.599 153.068 812.672 153.075 812.745C153.083 812.817 153.108 812.887 153.149 812.947C153.191 813.008 153.247 813.057 153.312 813.092C153.378 813.126 153.451 813.144 153.525 813.145H153.537Z" fill="white"/>
<path d="M151.13 810.239C151.805 808.659 152.335 805.62 152.968 802.101C153.691 798.016 154.513 793.386 155.751 789.896C157.993 783.594 163.623 782.416 163.68 782.404L163.599 782.006C163.539 782.006 157.682 783.235 155.363 789.763C154.11 793.282 153.287 797.93 152.558 802.033C151.956 805.526 151.404 808.544 150.751 810.082L151.13 810.239Z" fill="#5693C2"/>
<path d="M151.995 811.085C152.67 809.505 153.2 806.466 153.832 802.95C154.558 798.862 155.378 794.232 156.619 790.745C158.863 784.432 164.472 783.261 164.545 783.253L164.473 782.855C164.415 782.855 158.559 784.081 156.236 790.609C154.986 794.146 154.161 798.779 153.435 802.879C152.814 806.375 152.278 809.39 151.627 810.931L151.995 811.085Z" fill="#5693C2"/>
<path d="M151.715 806.484C153.959 799.917 160.038 790.533 160.038 789.787C160.038 785.107 165.132 781.434 169.916 781.434C171.334 781.433 172.73 781.773 173.981 782.424C175.233 783.074 176.302 784.016 177.095 785.165C176.322 786.241 175.817 787.479 175.619 788.78C175.422 790.08 175.537 791.408 175.956 792.658C181.617 796.937 185.897 805.838 187.256 816.676H149.41C149.831 813.212 150.603 809.798 151.715 806.484V806.484Z" fill="#2A4254"/>
<path d="M175.911 783.792L182.234 782.628L171.013 786.922L175.911 783.792Z" fill="#E48958"/>
<path d="M175.911 783.792L182.234 782.628H173.453L175.911 783.792Z" fill="#2A4254"/>
<path d="M160.038 789.787C160.066 788.057 160.724 786.393 161.894 785.095L163.539 787.883L165.647 791.455H159.234C159.731 790.553 160.038 789.952 160.038 789.787Z" fill="#E48958"/>
<path d="M160.755 813.504C162.695 807.825 161.743 800.787 164.069 797.315C164.277 797.02 165.653 794.756 167.359 793.571C169.064 792.387 170.401 791.841 172.332 791.841C173.56 791.842 174.768 792.138 175.851 792.703C176.933 793.269 177.857 794.086 178.541 795.083C183.864 803.068 186.108 809.525 187.054 816.691H159.381C159.653 815.582 160.406 814.521 160.755 813.504Z" fill="#F7F7F7"/>
<path d="M176.239 849.501C173.211 849.501 170.757 848.62 170.757 847.535C170.757 846.449 173.211 845.569 176.239 845.569C179.267 845.569 181.722 846.449 181.722 847.535C181.722 848.62 179.267 849.501 176.239 849.501Z" fill="#435868"/>
<path d="M169.982 850.85C166.954 850.85 164.5 849.97 164.5 848.885C164.5 847.799 166.954 846.919 169.982 846.919C173.01 846.919 175.465 847.799 175.465 848.885C175.465 849.97 173.01 850.85 169.982 850.85Z" fill="#435868"/>
<path d="M187.319 813.095C187.898 818.612 188.344 819.638 188.916 822.105C189.567 824.902 190.013 830.033 188.786 830.732C187.56 831.43 183.596 827.13 181.041 823.301C178.487 819.473 178.46 795.007 178.46 795.007C178.46 795.007 186.202 802.422 187.319 813.095Z" fill="#435868"/>
<path d="M155.787 815.158C156.065 814.067 160.37 814.427 160.716 813.41C161.647 810.696 161.921 807.666 162.189 804.863C167.913 802.275 173.034 798.452 178.571 795.204C183.789 802.997 185.91 804.123 187.151 816.57C188.401 829.114 187.325 831.363 184.792 839.872C182.141 848.779 169.946 851.835 162.397 848.779C157.155 846.656 155.468 842.745 153.359 835.913C150.717 827.357 155.787 815.158 155.787 815.158Z" fill="#F7F7F7"/>
<path d="M160.755 813.504C162.695 807.825 161.743 800.787 164.069 797.315C164.277 797.02 165.653 794.756 167.359 793.571C169.064 792.387 170.401 791.841 172.332 791.841C173.56 791.842 174.768 792.138 175.851 792.703C176.933 793.269 177.857 794.086 178.541 795.083C183.864 803.068 186.108 809.525 187.054 816.691H159.381C159.653 815.582 160.406 814.521 160.755 813.504Z" fill="#F7F7F7"/>
<path d="M157.932 793.677C155.959 797.176 153.091 802.331 151.7 806.404C150.642 809.505 150.052 810.171 149.395 816.57C148.545 824.858 153.658 836.629 153.658 836.629C153.658 836.629 153.465 828.395 155.007 823.738C155.795 821.408 156.08 818.945 155.845 816.502C155.845 816.502 156.73 817.681 156.092 823.738C155.453 829.795 154.125 832.444 155.453 835.412C156.782 838.38 162.403 827.227 162.382 819.773C162.382 810.389 160.978 805.172 160.978 805.172L157.544 794.344" fill="#2A4254"/>
<path d="M162.364 782.206L165.888 781.027L166.163 779.999L166.735 777.844L168.356 779.406L169.064 780.09L169.512 779.433L170.308 781.496C170.308 781.496 169.75 781.932 168.009 782.41C166.268 782.887 162.915 784.084 162.915 784.084L162.364 782.206Z" fill="#FFE145"/>
<path d="M152.862 811.933C153.534 810.354 154.067 807.315 154.697 803.796C155.435 799.711 156.245 795.08 157.484 791.579C159.728 785.266 165.355 784.099 165.412 784.087L165.331 783.689C165.271 783.689 159.415 784.918 157.095 791.446C155.842 794.965 155.019 799.613 154.29 803.716C153.67 807.209 153.137 810.227 152.483 811.765L152.862 811.933Z" fill="#5693C2"/>
<path d="M153.727 812.779C154.402 811.2 154.932 808.161 155.565 804.642C156.288 800.557 157.11 795.926 158.351 792.437C160.595 786.126 166.22 784.956 166.28 784.944L166.199 784.549C166.141 784.549 160.282 785.776 157.963 792.304C156.712 795.841 155.887 800.474 155.161 804.574C154.54 808.069 154.004 811.085 153.353 812.626L153.727 812.779Z" fill="#5693C2"/>
<path d="M38.4587 829.895H73.2497C73.3124 829.894 73.3744 829.881 73.4315 829.855C73.4887 829.829 73.5398 829.791 73.5816 829.744C73.6227 829.698 73.6535 829.643 73.6717 829.583C73.6899 829.524 73.6953 829.461 73.6874 829.4C72.3656 818.642 68.2271 809.599 62.6112 805.169C62.2496 804 62.1601 802.764 62.3495 801.555C62.5389 800.346 63.0022 799.197 63.7038 798.196C63.754 798.122 63.7808 798.035 63.7808 797.945C63.7808 797.856 63.754 797.769 63.7038 797.695C62.8922 796.484 61.7965 795.491 60.513 794.805C59.2296 794.118 57.7977 793.758 56.3432 793.757C51.5967 793.757 46.2892 797.506 46.2716 802.525C46.1923 802.838 45.3904 804.276 44.568 805.794C42.5972 809.381 39.6159 814.798 38.1796 819.107C37.5658 820.952 37.742 822.842 37.93 824.843C38.068 826.317 38.2237 827.843 38.021 829.388C38.0131 829.449 38.0185 829.512 38.0367 829.572C38.0549 829.631 38.0856 829.686 38.1268 829.733C38.1675 829.782 38.2181 829.821 38.2754 829.849C38.3326 829.877 38.3951 829.893 38.4587 829.895V829.895ZM72.7504 829.01H38.9462C39.0251 827.596 38.9789 826.178 38.8082 824.772C38.629 822.868 38.4616 821.067 39.0167 819.402C40.4266 815.167 43.3843 809.791 45.3405 806.233C46.8091 803.563 47.1528 802.903 47.1528 802.564C47.1528 798.037 52.005 794.653 56.3432 794.653C57.6028 794.653 58.8445 794.952 59.9673 795.524C61.0902 796.097 62.0625 796.927 62.8051 797.948C62.0815 799.063 61.6164 800.326 61.444 801.646C61.2717 802.965 61.3966 804.306 61.8094 805.57C61.8368 805.654 61.889 805.728 61.9592 805.782C67.3695 809.965 71.3817 818.621 72.7504 829.01Z" fill="white"/>
<path d="M38.4587 829.895H73.2497C73.3124 829.894 73.3744 829.881 73.4315 829.855C73.4887 829.829 73.5398 829.791 73.5816 829.744C73.6227 829.698 73.6535 829.643 73.6717 829.583C73.6899 829.524 73.6953 829.461 73.6874 829.4C72.3656 818.642 68.2271 809.599 62.6112 805.169C62.2496 804 62.1601 802.764 62.3495 801.555C62.5389 800.346 63.0022 799.197 63.7038 798.196C63.754 798.122 63.7808 798.035 63.7808 797.945C63.7808 797.856 63.754 797.769 63.7038 797.695C62.8922 796.484 61.7965 795.491 60.513 794.805C59.2296 794.118 57.7977 793.758 56.3432 793.757C51.5967 793.757 46.2892 797.506 46.2716 802.525C46.1923 802.838 45.3904 804.276 44.568 805.794C42.5972 809.381 39.6159 814.798 38.1796 819.107C37.5658 820.952 37.742 822.842 37.93 824.843C38.068 826.317 38.2237 827.843 38.021 829.388C38.0131 829.449 38.0185 829.512 38.0367 829.572C38.0549 829.631 38.0856 829.686 38.1268 829.733C38.1675 829.782 38.2181 829.821 38.2754 829.849C38.3326 829.877 38.3951 829.893 38.4587 829.895V829.895ZM72.7504 829.01H38.9462C39.0251 827.596 38.9789 826.178 38.8082 824.772C38.629 822.868 38.4616 821.067 39.0167 819.402C40.4266 815.167 43.3843 809.791 45.3405 806.233C46.8091 803.563 47.1528 802.903 47.1528 802.564C47.1528 798.037 52.005 794.653 56.3432 794.653C57.6028 794.653 58.8445 794.952 59.9673 795.524C61.0902 796.097 62.0625 796.927 62.8051 797.948C62.0815 799.063 61.6164 800.326 61.444 801.646C61.2717 802.965 61.3966 804.306 61.8094 805.57C61.8368 805.654 61.889 805.728 61.9592 805.782C67.3695 809.965 71.3817 818.621 72.7504 829.01Z" fill="white"/>
<path d="M74.639 836.721C74.8289 836.726 75.0163 836.677 75.1795 836.579C76.7802 835.598 75.3939 830.136 74.965 828.84C74.8387 828.451 74.7183 828.106 74.6008 827.773C74.1044 826.355 73.6756 825.12 72.9854 821.451L72.5536 821.533L72.9854 821.451C71.3024 812.505 63.9594 806.817 63.6657 806.578C63.5977 806.527 63.5167 806.497 63.4321 806.491C63.3475 806.485 63.263 806.503 63.1885 806.544C63.114 806.584 63.0527 806.646 63.0118 806.72C62.9709 806.795 62.9522 806.879 62.9578 806.964C63.0195 807.804 64.4793 827.596 67.1139 830.729C68.5238 832.409 72.627 836.718 74.639 836.721ZM63.9153 807.952C65.8597 809.691 70.8265 814.713 72.1189 821.616C72.8209 825.362 73.2615 826.626 73.7696 828.064C73.8841 828.395 74.0046 828.733 74.1279 829.117C75.0532 831.92 75.3616 835.43 74.7154 835.825C74.1544 836.173 70.9235 833.894 67.7836 830.16C65.8656 827.876 64.4146 814.232 63.9153 807.952Z" fill="white"/>
<path d="M70.9704 835.819C71.2531 835.823 71.5334 835.767 71.7928 835.654C72.3979 835.383 72.8414 834.796 73.1851 833.812C75.3204 827.669 69.5606 812.334 65.2546 807.58C65.1977 807.517 65.1239 807.472 65.042 807.45C64.9602 807.429 64.8739 807.431 64.7933 807.457C64.7127 807.483 64.6414 807.532 64.5877 807.598C64.5341 807.664 64.5005 807.743 64.491 807.828L61.639 832.547C61.6262 832.66 61.6572 832.774 61.7255 832.864C61.7939 832.955 61.8944 833.015 62.0061 833.034C64.061 833.401 66.0608 834.03 67.9569 834.905C69.1758 835.409 70.148 835.819 70.9704 835.819ZM65.2429 808.968C69.308 814.274 74.2395 828.126 72.3538 833.535C72.0983 834.263 71.7987 834.699 71.4345 834.861C70.7912 835.156 69.7456 834.705 68.2976 834.095C66.4632 833.259 64.5381 832.641 62.5612 832.253L65.2429 808.968Z" fill="white"/>
<path d="M70.9704 835.819C71.2531 835.823 71.5334 835.767 71.7928 835.654C72.3979 835.383 72.8414 834.796 73.1851 833.812C75.3204 827.669 69.5606 812.334 65.2546 807.58C65.1977 807.517 65.1239 807.472 65.042 807.45C64.9602 807.429 64.8739 807.431 64.7933 807.457C64.7127 807.483 64.6414 807.532 64.5877 807.598C64.5341 807.664 64.5005 807.743 64.491 807.828L61.639 832.547C61.6262 832.66 61.6572 832.774 61.7255 832.864C61.7939 832.955 61.8944 833.015 62.0061 833.034C64.061 833.401 66.0608 834.03 67.9569 834.905C69.1758 835.409 70.148 835.819 70.9704 835.819ZM65.2429 808.968C69.308 814.274 74.2395 828.126 72.3538 833.535C72.0983 834.263 71.7987 834.699 71.4345 834.861C70.7912 835.156 69.7456 834.705 68.2976 834.095C66.4632 833.259 64.5381 832.641 62.5612 832.253L65.2429 808.968Z" fill="white"/>
<path d="M61.1485 849.733C63.8477 849.733 66.5852 848.952 66.5852 847.458C66.5852 845.964 63.8477 845.18 61.1485 845.18C58.4492 845.18 55.7117 845.961 55.7117 847.458C55.7117 848.955 58.4462 849.733 61.1485 849.733ZM61.1485 846.064C63.927 846.064 65.704 846.889 65.704 847.458C65.704 848.027 63.9417 848.849 61.1485 848.849C58.3552 848.849 56.5929 848.024 56.5929 847.458C56.5929 846.892 58.3787 846.064 61.1485 846.064Z" fill="white"/>
<path d="M55.4416 850.998C58.1438 850.998 60.8783 850.214 60.8783 848.72C60.8783 847.225 58.1438 846.441 55.4416 846.441C52.7393 846.441 50.0048 847.222 50.0048 848.72C50.0048 850.217 52.7481 850.998 55.4416 850.998ZM55.4416 847.325C58.2231 847.325 59.9971 848.151 59.9971 848.72C59.9971 849.288 58.2348 850.114 55.4416 850.114C52.6483 850.114 50.886 849.285 50.886 848.72C50.886 848.154 52.6688 847.325 55.4416 847.325V847.325Z" fill="white"/>
<path d="M56.8514 849.804C62.7963 849.804 67.4576 846.857 70.3302 841.307C72.1185 837.7 73.1009 833.745 73.2086 829.718C73.2086 825.736 69.8543 812.682 65.2635 807.598C64.7216 806.851 64.0536 806.204 63.2897 805.688L62.9255 805.393C62.8425 805.327 62.7379 805.293 62.6318 805.299C61.4831 804.676 60.1982 804.35 58.8927 804.35C57.1503 804.333 55.4498 804.886 54.0493 805.927L50.9329 801.709C50.8761 801.633 50.7962 801.577 50.7052 801.55C50.6142 801.523 50.5169 801.526 50.4277 801.559L47.4465 802.64C47.4215 802.648 47.3977 802.658 47.376 802.673L45.975 803.483C45.9026 803.526 45.8437 803.588 45.8046 803.663C45.4933 804.253 45.0497 805.066 44.5357 805.997L43.8925 807.176C41.7013 811.176 39.2958 815.774 38.0357 819.555C36.8843 823.016 36.6229 828.716 37.322 835.197C37.8037 839.577 40.6528 849.804 56.8514 849.804ZM62.5319 806.204L62.7346 806.375L62.7786 806.41C63.4722 806.874 64.0771 807.459 64.5645 808.137L64.5968 808.176C68.75 812.753 72.3275 825.429 72.3275 829.718C72.2201 833.603 71.2688 837.419 69.5401 840.897C66.7879 846.22 62.5172 848.92 56.8426 848.92C41.3577 848.92 38.632 839.244 38.1973 835.085C37.5247 828.819 37.7743 823.113 38.8728 819.821C40.1094 816.113 42.4944 811.568 44.665 807.592L45.2994 806.437C45.787 805.552 46.2129 804.777 46.5242 804.179L47.8048 803.451L50.4483 802.496L53.6352 806.808C53.6706 806.855 53.7152 806.895 53.7662 806.925C53.8172 806.955 53.8736 806.974 53.9321 806.982C53.9907 806.99 54.0502 806.985 54.1071 806.97C54.1641 806.954 54.2173 806.927 54.2637 806.891C55.5732 805.804 57.2227 805.215 58.9221 805.228C60.1353 805.229 61.3276 805.546 62.3821 806.148C62.4277 806.177 62.4787 806.196 62.5319 806.204Z" fill="white"/>
<path d="M56.8514 849.804C62.7963 849.804 67.4576 846.857 70.3302 841.307C72.1185 837.7 73.1009 833.745 73.2086 829.718C73.2086 825.736 69.8543 812.682 65.2635 807.598C64.7216 806.851 64.0536 806.204 63.2897 805.688L62.9255 805.393C62.8425 805.327 62.7379 805.293 62.6318 805.299C61.4831 804.676 60.1982 804.35 58.8927 804.35C57.1503 804.333 55.4498 804.886 54.0493 805.927L50.9329 801.709C50.8761 801.633 50.7962 801.577 50.7052 801.55C50.6142 801.523 50.5169 801.526 50.4277 801.559L47.4465 802.64C47.4215 802.648 47.3977 802.658 47.376 802.673L45.975 803.483C45.9026 803.526 45.8437 803.588 45.8046 803.663C45.4933 804.253 45.0497 805.066 44.5357 805.997L43.8925 807.176C41.7013 811.176 39.2958 815.774 38.0357 819.555C36.8843 823.016 36.6229 828.716 37.322 835.197C37.8037 839.577 40.6528 849.804 56.8514 849.804ZM62.5319 806.204L62.7346 806.375L62.7786 806.41C63.4722 806.874 64.0771 807.459 64.5645 808.137L64.5968 808.176C68.75 812.753 72.3275 825.429 72.3275 829.718C72.2201 833.603 71.2688 837.419 69.5401 840.897C66.7879 846.22 62.5172 848.92 56.8426 848.92C41.3577 848.92 38.632 839.244 38.1973 835.085C37.5247 828.819 37.7743 823.113 38.8728 819.821C40.1094 816.113 42.4944 811.568 44.665 807.592L45.2994 806.437C45.787 805.552 46.2129 804.777 46.5242 804.179L47.8048 803.451L50.4483 802.496L53.6352 806.808C53.6706 806.855 53.7152 806.895 53.7662 806.925C53.8172 806.955 53.8736 806.974 53.9321 806.982C53.9907 806.99 54.0502 806.985 54.1071 806.97C54.1641 806.954 54.2173 806.927 54.2637 806.891C55.5732 805.804 57.2227 805.215 58.9221 805.228C60.1353 805.229 61.3276 805.546 62.3821 806.148C62.4277 806.177 62.4787 806.196 62.5319 806.204Z" fill="white"/>
<path d="M44.4975 838.584C44.7257 838.579 44.9511 838.531 45.1613 838.442C47.6638 837.422 51.2148 830.667 51.2119 825.715C51.2119 818.553 50.8976 817.613 49.8755 814.498L49.7903 814.241C48.6977 810.908 45.3581 806.469 45.2171 806.283C45.1734 806.226 45.1164 806.18 45.051 806.15C44.9856 806.12 44.9139 806.106 44.842 806.11C44.7701 806.114 44.7003 806.136 44.6387 806.173C44.5771 806.211 44.5256 806.263 44.4887 806.325C44.3506 806.555 41.105 812.013 39.7245 815.167C39.5454 815.576 39.3809 815.93 39.2252 816.26C38.4557 817.908 37.9475 818.995 37.3983 823.181C37.1509 825.169 37.3174 827.187 37.8872 829.107C38.457 831.027 39.4177 832.808 40.7085 834.336C40.7561 834.388 40.8154 834.428 40.8816 834.452C40.9477 834.476 41.0186 834.484 41.0884 834.475C41.1581 834.466 41.2246 834.44 41.2822 834.399C41.3398 834.359 41.3869 834.305 41.4193 834.242C41.4457 834.195 41.901 833.328 42.7352 831.475L42.6089 832.032C42.0391 834.56 41.6602 836.229 43.5458 838.174C43.6682 838.304 43.8157 838.407 43.9794 838.478C44.1431 838.548 44.3194 838.584 44.4975 838.584V838.584ZM44.8999 807.341C45.8222 808.627 48.1161 811.972 48.9473 814.509L49.0325 814.766C50.0488 817.855 50.319 818.686 50.3249 825.707C50.3249 830.499 46.8002 836.809 44.8235 837.614C44.4534 837.764 44.286 837.661 44.1715 837.54C42.6206 835.937 42.9202 834.614 43.4636 832.211C43.678 831.251 43.9247 830.148 44.1039 828.843C44.1538 828.477 44.1979 828.132 44.239 827.808C44.7371 826.289 44.8867 824.677 44.6767 823.092C44.6622 822.975 44.602 822.868 44.5092 822.796C44.4164 822.723 44.2986 822.69 44.1817 822.705C44.0649 822.719 43.9586 822.78 43.8861 822.873C43.8137 822.966 43.7811 823.084 43.7955 823.201C43.7955 823.234 43.8278 824.041 43.3667 827.622C43.2614 827.961 43.1388 828.295 42.9995 828.621C42.0097 830.953 41.3018 832.453 40.9435 833.219C39.9654 831.917 37.6274 828.209 38.2706 823.29C38.8023 819.24 39.2898 818.203 40.0329 816.629C40.1886 816.293 40.359 815.933 40.5411 815.517C41.6367 813.006 44.0158 808.865 44.8999 807.353V807.341Z" fill="white"/>
<path d="M41.8306 838.513C41.8704 838.513 41.91 838.507 41.9481 838.495C42.0434 838.469 42.1272 838.412 42.1859 838.332C42.2445 838.252 42.2746 838.155 42.2712 838.056C42.2712 837.997 42.1067 831.914 43.54 828.539C43.634 828.315 43.7192 828.094 43.7985 827.879C43.7809 828.017 43.7633 828.173 43.7427 828.306C43.5489 829.747 43.2874 830.92 43.0583 831.955C42.5737 834.133 42.2242 835.707 43.1817 837.375C43.2996 837.606 43.4953 837.788 43.7341 837.888C43.9729 837.988 44.2393 837.999 44.4858 837.92C46.7974 837.301 50.7097 830.072 50.7039 825.379C50.7039 819.293 50.1164 817.147 49.5936 815.255C49.5055 814.931 49.4174 814.613 49.3351 814.28C48.7477 811.957 45.3817 806.342 45.2231 806.107C45.1841 806.041 45.1291 805.987 45.0632 805.949C44.9974 805.912 44.9229 805.892 44.8471 805.891V805.891C44.7716 805.891 44.6973 805.911 44.6315 805.948C44.5656 805.985 44.5104 806.039 44.4711 806.104C44.3243 806.348 40.8643 812.081 39.5249 815.137C39.3516 815.532 39.193 815.877 39.0432 816.195C38.2942 817.796 37.8008 818.848 37.2809 822.909C36.4526 829.223 41.2402 837.917 41.4429 838.286C41.4816 838.355 41.5379 838.412 41.606 838.452C41.6742 838.492 41.7517 838.513 41.8306 838.513V838.513ZM44.8677 807.2C45.7782 808.753 48.0516 812.741 48.4892 814.498C48.5744 814.837 48.6625 815.161 48.7536 815.491C49.2588 817.33 49.8286 819.417 49.8315 825.385C49.8315 830.133 45.8839 836.635 44.2685 837.069C44.2396 837.083 44.2081 837.091 44.176 837.092C44.1438 837.093 44.1118 837.087 44.0821 837.075C44.0523 837.063 44.0255 837.044 44.0035 837.021C43.9814 836.997 43.9646 836.969 43.9542 836.939C43.17 835.568 43.4549 834.286 43.9278 832.149C44.1598 831.097 44.4241 829.907 44.6239 828.427C45.2377 823.885 44.4329 822.789 44.2655 822.615C44.2003 822.546 44.1146 822.5 44.0213 822.485C43.928 822.47 43.8323 822.485 43.7486 822.529C43.6641 822.573 43.5959 822.642 43.5541 822.728C43.5123 822.813 43.4991 822.91 43.5165 823.004C43.7233 824.773 43.4545 826.565 42.7382 828.194C41.7249 830.581 41.4664 834.104 41.4076 836.24C40.0595 833.423 37.5893 827.487 38.1767 823.03C38.6937 819.104 39.1636 818.099 39.8744 816.576C40.0272 816.248 40.1916 815.901 40.3679 815.497C41.4076 813.077 43.9072 808.803 44.8677 807.2Z" fill="white"/>
<path d="M57.4123 800.126C57.4675 800.127 57.5224 800.117 57.5739 800.097L68.5149 795.803C68.6173 795.762 68.701 795.685 68.7497 795.586C68.7983 795.487 68.8084 795.374 68.7778 795.268C68.7473 795.162 68.6784 795.071 68.5846 795.014C68.4909 794.956 68.3791 794.936 68.2711 794.957L62.103 796.136C62.0466 796.147 61.9928 796.169 61.9444 796.2L57.1685 799.331C57.0899 799.383 57.03 799.459 56.9978 799.548C56.9657 799.637 56.9629 799.734 56.9899 799.825C57.0168 799.916 57.0722 799.996 57.1477 800.053C57.2232 800.109 57.315 800.14 57.4094 800.141L57.4123 800.126ZM63.8095 796.701L61.2307 797.715L62.3556 796.976L63.8095 796.701Z" fill="white"/>
<path d="M57.4124 800.126C57.4978 800.126 57.5814 800.102 57.6532 800.056L62.3527 796.973L68.4327 795.823C68.5496 795.812 68.6573 795.755 68.7322 795.664C68.7693 795.62 68.7972 795.568 68.8144 795.512C68.8315 795.456 68.8376 795.398 68.8322 795.34C68.8268 795.282 68.81 795.225 68.7829 795.174C68.7558 795.122 68.7188 795.076 68.6741 795.039C68.5837 794.964 68.4673 794.928 68.3505 794.939H59.7915C59.713 794.939 59.6358 794.96 59.5681 794.999C59.5004 795.039 59.4447 795.097 59.4067 795.166L57.0276 799.46C56.9806 799.547 56.9634 799.647 56.9788 799.744C56.9942 799.842 57.0413 799.932 57.1128 800C57.1926 800.079 57.2999 800.125 57.4124 800.126V800.126ZM63.6392 795.835L62.106 796.13C62.0496 796.141 61.9958 796.163 61.9474 796.195L58.6724 798.34L60.0588 795.835H63.6392Z" fill="white"/>
<path d="M57.4124 800.126C57.491 800.127 57.5683 800.106 57.636 800.066C57.7038 800.026 57.7595 799.969 57.7972 799.899L60.1763 795.605C60.2211 795.524 60.2397 795.432 60.2294 795.34C60.2191 795.249 60.1805 795.162 60.119 795.094C60.0575 795.025 59.9761 794.978 59.8863 794.958C59.7965 794.938 59.7028 794.947 59.6183 794.983L52.9185 797.872C52.8357 797.907 52.7656 797.967 52.7177 798.043C52.6697 798.12 52.6463 798.209 52.6504 798.299C52.6546 798.389 52.6862 798.476 52.7409 798.548C52.7957 798.619 52.871 798.672 52.9567 798.7L57.2773 800.106C57.321 800.12 57.3666 800.127 57.4124 800.126V800.126ZM58.7812 796.295L57.2039 799.157L54.3431 798.225L58.7812 796.295Z" fill="white"/>
<path d="M38.5967 819.249C40.785 812.682 46.7122 803.298 46.7122 802.552C46.7122 797.872 51.679 794.199 56.3433 794.199C57.7253 794.198 59.0864 794.538 60.3068 795.189C61.5273 795.839 62.5698 796.781 63.3426 797.931C62.588 799.008 62.0946 800.247 61.9018 801.549C61.7091 802.851 61.8223 804.181 62.2323 805.432C67.7513 809.711 71.9251 818.612 73.2498 829.45H38.4587C38.9051 825.789 37.5629 822.358 38.5967 819.249Z" fill="#754C24"/>
<path d="M72.5536 821.533C73.4113 826.113 73.8783 826.947 74.5333 828.978C75.2911 831.277 76.0019 835.545 74.9357 836.202C73.8695 836.859 69.9982 833.494 67.4341 830.443C64.8699 827.392 63.3807 806.932 63.3807 806.932C63.3807 806.932 70.8911 812.662 72.5536 821.533Z" fill="#754C24"/>
<path d="M64.9228 807.878C69.3286 812.723 74.78 827.882 72.768 833.664C71.3993 837.599 68.7323 833.664 62.0766 832.603L64.9228 807.878Z" fill="#F7F7F7"/>
<path d="M61.1485 849.294C58.3892 849.294 56.1523 848.472 56.1523 847.458C56.1523 846.444 58.3892 845.622 61.1485 845.622C63.9078 845.622 66.1447 846.444 66.1447 847.458C66.1447 848.472 63.9078 849.294 61.1485 849.294Z" fill="#2A4254"/>
<path d="M55.4473 850.556C52.688 850.556 50.4511 849.734 50.4511 848.72C50.4511 847.705 52.688 846.883 55.4473 846.883C58.2066 846.883 60.4435 847.705 60.4435 848.72C60.4435 849.734 58.2066 850.556 55.4473 850.556Z" fill="#2A4254"/>
<path d="M37.7685 835.132C37.043 828.377 37.4101 822.842 38.4646 819.679C39.7628 815.78 42.3534 810.914 44.2861 807.38C44.3125 807.333 44.339 807.288 44.3625 807.241L44.8618 806.333C45.4081 805.337 45.8751 804.491 46.2041 803.861L47.6051 803.05L50.5864 801.968L53.973 806.546C55.3568 805.39 57.104 804.763 58.9045 804.777C60.1944 804.775 61.4623 805.113 62.5819 805.756L62.6553 805.726C62.7816 805.826 62.905 805.93 63.0283 806.021C63.7633 806.517 64.4056 807.138 64.9258 807.857C69.3198 812.723 72.771 825.547 72.771 829.718C72.771 833.888 70.5329 849.362 56.8543 849.362C43.1758 849.362 38.4939 841.888 37.7685 835.132Z" fill="#754C24"/>
<path d="M44.8676 806.552C44.8676 806.552 48.2894 811.082 49.3733 814.383C50.4571 817.684 50.7655 818.435 50.7714 825.718C50.7714 831.507 45.7076 839.771 43.8601 837.861C41.4869 835.409 43.0377 833.496 43.6722 828.795C44.3066 824.094 44.2596 823.181 44.2596 823.181C44.4866 825.096 44.1891 827.037 43.399 828.795C41.8629 832.412 41.0111 834.03 41.0111 834.03C41.0111 834.03 36.9695 829.668 37.8154 823.231C38.4675 818.264 39.0549 817.746 40.1064 815.341C41.5075 812.178 44.8676 806.552 44.8676 806.552Z" fill="#F7F7F7"/>
<path d="M44.8675 806.333C44.8675 806.333 48.3452 812.101 48.915 814.389C49.4848 816.676 50.2661 818.317 50.269 825.379C50.269 830.979 44.8499 839.391 43.5693 837.154C42.2887 834.917 43.5693 832.925 44.1861 828.365C44.8029 823.805 43.9453 822.918 43.9453 822.918C44.1738 824.774 43.8956 826.656 43.1405 828.365C41.6513 831.872 41.8364 838.071 41.8364 838.071C41.8364 838.071 36.9078 829.208 37.7243 822.968C38.3587 818.152 38.9285 817.663 39.9507 815.305C41.2871 812.252 44.8675 806.333 44.8675 806.333Z" fill="#754C24"/>
<path d="M62.1882 796.557L68.3534 795.393L57.4123 799.687L62.1882 796.557Z" fill="#2A4254"/>
<path d="M62.1882 796.557L68.3534 795.393H59.7915L57.4123 799.687L62.1882 796.557Z" fill="#2A4254"/>
<path d="M59.7915 795.393L57.4124 799.687L53.0918 798.281L59.7915 795.393Z" fill="#F7F7F7"/>
</g>
<defs>
<filter id="filter0_d" x="0" y="0" width="1928" height="1088" filterUnits="userSpaceOnUse" color-interpolation-filters="sRGB">
<feFlood flood-opacity="0" result="BackgroundImageFix"/>
<feColorMatrix in="SourceAlpha" type="matrix" values="0 0 0 0 0 0 0 0 0 0 0 0 0 0 0 0 0 0 127 0"/>
<feOffset dy="4"/>
<feGaussianBlur stdDeviation="2"/>
<feColorMatrix type="matrix" values="0 0 0 0 0 0 0 0 0 0 0 0 0 0 0 0 0 0 0.25 0"/>
<feBlend mode="normal" in2="BackgroundImageFix" result="effect1_dropShadow"/>
<feBlend mode="normal" in="SourceGraphic" in2="effect1_dropShadow" result="shape"/>
</filter>
</defs>
</svg>
