<svg id="圖層_1" data-name="圖層 1" xmlns="http://www.w3.org/2000/svg" viewBox="0 0 169 285"><defs><style>.cls-1{fill:#fff;}.cls-2{fill:#754c24;}.cls-3{fill:#f7f7f7;}.cls-4{fill:#2a4254;}</style></defs><title>element</title><path class="cls-1" d="M153.82,210H35.37a1.53,1.53,0,0,1-1.13-.51,1.48,1.48,0,0,1-.36-1.17c4.5-36.5,18.59-67.18,37.71-82.21a27.14,27.14,0,0,0-3.72-23.66,1.51,1.51,0,0,1,0-1.7A30.23,30.23,0,0,1,92.93,87.39c16.16,0,34.23,12.72,34.29,29.75.27,1.06,3,5.94,5.8,11.09,6.71,12.17,16.86,30.55,21.75,45.17,2.09,6.26,1.49,12.67.85,19.46-.47,5-1,10.18-.31,15.42a1.48,1.48,0,0,1-.36,1.17A1.53,1.53,0,0,1,153.82,210ZM37.07,207H152.16a81.32,81.32,0,0,1,.47-14.38c.61-6.46,1.18-12.57-.71-18.22h0c-4.8-14.37-14.87-32.61-21.53-44.68-5-9.06-6.17-11.3-6.17-12.45,0-15.36-16.52-26.84-31.29-26.84a27.24,27.24,0,0,0-22,11.18,30.17,30.17,0,0,1,3.39,25.86,1.49,1.49,0,0,1-.51.72C55.39,142.38,41.73,171.75,37.07,207Zm90.15-89.75v0Z"/><path class="cls-1" d="M153.82,210H35.37a1.53,1.53,0,0,1-1.13-.51,1.48,1.48,0,0,1-.36-1.17c4.5-36.5,18.59-67.18,37.71-82.21a27.14,27.14,0,0,0-3.72-23.66,1.51,1.51,0,0,1,0-1.7A30.23,30.23,0,0,1,92.93,87.39c16.16,0,34.23,12.72,34.29,29.75.27,1.06,3,5.94,5.8,11.09,6.71,12.17,16.86,30.55,21.75,45.17,2.09,6.26,1.49,12.67.85,19.46-.47,5-1,10.18-.31,15.42a1.48,1.48,0,0,1-.36,1.17A1.53,1.53,0,0,1,153.82,210ZM37.07,207H152.16a81.32,81.32,0,0,1,.47-14.38c.61-6.46,1.18-12.57-.71-18.22h0c-4.8-14.37-14.87-32.61-21.53-44.68-5-9.06-6.17-11.3-6.17-12.45,0-15.36-16.52-26.84-31.29-26.84a27.24,27.24,0,0,0-22,11.18,30.17,30.17,0,0,1,3.39,25.86,1.49,1.49,0,0,1-.51.72C55.39,142.38,41.73,171.75,37.07,207Zm90.15-89.75v0Z"/><path class="cls-1" d="M30.64,233.16a3.42,3.42,0,0,1-1.84-.48c-5.45-3.33-.73-21.86.73-26.26.43-1.32.84-2.49,1.24-3.62,1.69-4.81,3.15-9,5.5-21.45l1.47.28-1.47-.28C42,151,67,131.7,68,130.89a1.51,1.51,0,0,1,2.41,1.31c-.21,2.85-5.18,70-14.15,80.63C51.46,218.53,37.49,233.15,30.64,233.16Zm36.51-97.61c-6.62,5.9-23.53,22.94-27.93,46.36h0c-2.39,12.71-3.89,17-5.62,21.88-.39,1.12-.8,2.27-1.22,3.57-3.15,9.51-4.2,21.42-2,22.76,1.91,1.18,12.91-6.55,23.6-19.22C60.51,203.15,65.45,156.86,67.15,135.55Z"/><path class="cls-1" d="M43.13,230.1a6.8,6.8,0,0,1-2.8-.56c-2.06-.92-3.57-2.91-4.74-6.25-7.27-20.84,12.34-72.87,27-89a1.5,1.5,0,0,1,2.6.84L74.9,219a1.5,1.5,0,0,1-1.25,1.65A83.4,83.4,0,0,0,53.39,227C49.24,228.71,45.93,230.1,43.13,230.1ZM62.63,139c-13.84,18-30.63,65-24.21,83.35.87,2.47,1.89,3.95,3.13,4.5,2.19,1,5.75-.53,10.68-2.6A88.3,88.3,0,0,1,71.76,218Z"/><path class="cls-1" d="M43.13,230.1a6.8,6.8,0,0,1-2.8-.56c-2.06-.92-3.57-2.91-4.74-6.25-7.27-20.84,12.34-72.87,27-89a1.5,1.5,0,0,1,2.6.84L74.9,219a1.5,1.5,0,0,1-1.25,1.65A83.4,83.4,0,0,0,53.39,227C49.24,228.71,45.93,230.1,43.13,230.1ZM62.63,139c-13.84,18-30.63,65-24.21,83.35.87,2.47,1.89,3.95,3.13,4.5,2.19,1,5.75-.53,10.68-2.6A88.3,88.3,0,0,1,71.76,218Z"/><path class="cls-1" d="M76.57,277.31c-9.19,0-18.51-2.65-18.51-7.72s9.32-7.73,18.51-7.73,18.51,2.65,18.51,7.73S85.77,277.31,76.57,277.31Zm0-12.45c-9.46,0-15.51,2.8-15.51,4.73s6,4.72,15.51,4.72,15.51-2.8,15.51-4.72S86,264.86,76.57,264.86Z"/><path class="cls-1" d="M96,281.6c-9.2,0-18.51-2.66-18.51-7.73s9.31-7.73,18.51-7.73,18.51,2.65,18.51,7.73S105.17,281.6,96,281.6Zm0-12.46c-9.47,0-15.51,2.8-15.51,4.73s6,4.73,15.51,4.73,15.51-2.81,15.51-4.73S105.44,269.14,96,269.14Z"/><path class="cls-1" d="M91.2,277.55c-20.24,0-36.11-10-45.89-28.83a93.93,93.93,0,0,1-9.8-39.32c0-13.51,11.42-57.8,27.05-75.05a26.88,26.88,0,0,1,6.72-6.48l1.24-1a1.47,1.47,0,0,1,1-.32,26.8,26.8,0,0,1,12.73-3.22,27.26,27.26,0,0,1,16.49,5.35l10.61-14.31a1.5,1.5,0,0,1,1.72-.51l10.15,3.67a.86.86,0,0,1,.24.11l4.77,2.75a1.54,1.54,0,0,1,.58.61c1.06,2,2.57,4.76,4.32,7.92l2.19,4c7.46,13.57,15.65,29.17,19.94,42,3.92,11.74,4.81,31.08,2.43,53.07C156.05,242.85,146.35,277.55,91.2,277.55ZM71.86,129.62l-.69.58-.15.12a23.69,23.69,0,0,0-6.08,5.86l-.11.13c-14.14,15.53-26.32,58.54-26.32,73.09A90.62,90.62,0,0,0,48,247.33c9.37,18.06,23.91,27.22,43.23,27.22,52.72,0,62-32.83,63.48-46.94h0c2.29-21.26,1.44-40.62-2.3-51.79-4.21-12.58-12.33-28-19.72-41.49l-2.16-3.92c-1.66-3-3.11-5.63-4.17-7.66L122,120.28l-9-3.24-10.85,14.63a1.51,1.51,0,0,1-2.14.28,24.58,24.58,0,0,0-15.86-5.64,23.85,23.85,0,0,0-11.78,3.12A1.33,1.33,0,0,1,71.86,129.62Z"/><path class="cls-1" d="M91.2,277.55c-20.24,0-36.11-10-45.89-28.83a93.93,93.93,0,0,1-9.8-39.32c0-13.51,11.42-57.8,27.05-75.05a26.88,26.88,0,0,1,6.72-6.48l1.24-1a1.47,1.47,0,0,1,1-.32,26.8,26.8,0,0,1,12.73-3.22,27.26,27.26,0,0,1,16.49,5.35l10.61-14.31a1.5,1.5,0,0,1,1.72-.51l10.15,3.67a.86.86,0,0,1,.24.11l4.77,2.75a1.54,1.54,0,0,1,.58.61c1.06,2,2.57,4.76,4.32,7.92l2.19,4c7.46,13.57,15.65,29.17,19.94,42,3.92,11.74,4.81,31.08,2.43,53.07C156.05,242.85,146.35,277.55,91.2,277.55ZM71.86,129.62l-.69.58-.15.12a23.69,23.69,0,0,0-6.08,5.86l-.11.13c-14.14,15.53-26.32,58.54-26.32,73.09A90.62,90.62,0,0,0,48,247.33c9.37,18.06,23.91,27.22,43.23,27.22,52.72,0,62-32.83,63.48-46.94h0c2.29-21.26,1.44-40.62-2.3-51.79-4.21-12.58-12.33-28-19.72-41.49l-2.16-3.92c-1.66-3-3.11-5.63-4.17-7.66L122,120.28l-9-3.24-10.85,14.63a1.51,1.51,0,0,1-2.14.28,24.58,24.58,0,0,0-15.86-5.64,23.85,23.85,0,0,0-11.78,3.12A1.33,1.33,0,0,1,71.86,129.62Z"/><path class="cls-1" d="M133.26,239.48A6.08,6.08,0,0,1,131,239c-8.52-3.46-20.61-26.38-20.6-43.18,0-24.3,1.07-27.49,4.55-38.06l.29-.87c3.72-11.31,15.09-26.37,15.57-27a1.5,1.5,0,0,1,2.48.14c.47.78,11.52,19.3,16.22,30,.61,1.39,1.17,2.59,1.7,3.71,2.62,5.59,4.35,9.28,6.22,23.48a49.13,49.13,0,0,1-11.27,37.85,1.49,1.49,0,0,1-2.42-.32c-.09-.16-1.64-3.1-4.48-9.39l.43,1.89c1.94,8.58,3.23,14.24-3.19,20.84A4.44,4.44,0,0,1,133.26,239.48Zm-1.37-106c-3.14,4.36-10.95,15.71-13.78,24.32l-.29.87c-3.46,10.48-4.38,13.3-4.4,37.12,0,16.26,12,37.67,18.73,40.4,1.26.51,1.83.16,2.22-.25,5.28-5.44,4.26-9.93,2.41-18.08-.73-3.26-1.57-7-2.18-11.43-.17-1.24-.32-2.41-.46-3.51a36,36,0,0,1-1.49-16,1.5,1.5,0,0,1,3,.37c0,.11-.11,2.85,1.46,15a35.26,35.26,0,0,0,1.25,3.39c3.37,7.91,5.78,13,7,15.6,3.33-4.42,11.29-17,9.1-33.69-1.81-13.74-3.47-17.26-6-22.6-.53-1.14-1.11-2.36-1.73-3.77C143,152.7,134.9,138.65,131.89,133.52Z"/><path class="cls-1" d="M142.34,239.24a1.34,1.34,0,0,1-.4-.06,1.49,1.49,0,0,1-1.1-1.49c0-.2.56-20.84-4.32-32.29-.32-.76-.61-1.51-.88-2.24.06.47.12,1,.19,1.45.66,4.89,1.55,8.87,2.33,12.38,1.65,7.39,2.84,12.73-.42,18.39a3.72,3.72,0,0,1-4.44,1.85c-7.87-2.1-21.19-26.63-21.17-42.55,0-20.65,2-27.93,3.78-34.35.3-1.1.6-2.18.88-3.31,2-7.88,13.46-26.93,14-27.73a1.5,1.5,0,0,1,1.28-.73h0a1.5,1.5,0,0,1,1.28.72c.5.83,12.28,20.28,16.84,30.65.59,1.34,1.13,2.51,1.64,3.59,2.55,5.43,4.23,9,6,22.78,2.82,21.42-13.48,50.92-14.17,52.17A1.51,1.51,0,0,1,142.34,239.24ZM132,133c-3.1,5.27-10.84,18.8-12.33,24.76-.29,1.15-.59,2.25-.9,3.37-1.72,6.24-3.66,13.32-3.67,33.57,0,16.11,13.44,38.17,18.94,39.64a.77.77,0,0,0,1.07-.44c2.67-4.65,1.7-9,.09-16.25-.79-3.57-1.69-7.61-2.37-12.63-2.09-15.41.65-19.13,1.22-19.72a1.48,1.48,0,0,1,1.76-.29,1.5,1.5,0,0,1,.79,1.61,33.86,33.86,0,0,0,2.65,17.61c3.45,8.1,4.33,20.05,4.53,27.3,4.59-9.56,13-29.7,11-44.82-1.76-13.32-3.36-16.73-5.78-21.9-.52-1.11-1.08-2.29-1.68-3.66C143.78,152.94,135.27,138.44,132,133Z"/><path class="cls-1" d="M89.29,109a1.49,1.49,0,0,1-.55-.1L51.49,94.33a1.5,1.5,0,0,1,.83-2.87l21,4a1.58,1.58,0,0,1,.54.22l16.26,10.62a1.5,1.5,0,0,1-.82,2.75ZM67.51,97.38l8.78,3.44-3.83-2.51Z"/><path class="cls-1" d="M89.29,109a1.51,1.51,0,0,1-.82-.24l-16-10.46-20.7-3.9a1.5,1.5,0,0,1,.28-3H81.19a1.49,1.49,0,0,1,1.31.77l8.1,14.57a1.52,1.52,0,0,1-.29,1.83A1.48,1.48,0,0,1,89.29,109ZM68.09,94.44l5.22,1a1.58,1.58,0,0,1,.54.22L85,102.94l-4.72-8.5Z"/><path class="cls-1" d="M89.29,109a1.48,1.48,0,0,1-1.31-.77l-8.1-14.57a1.5,1.5,0,0,1,1.9-2.11l22.81,9.8a1.5,1.5,0,0,1-.13,2.81l-14.71,4.77A1.47,1.47,0,0,1,89.29,109Zm-4.66-13L90,105.71l9.74-3.16Z"/><path class="cls-2" d="M153.35,173.88c-7.45-22.28-27.63-54.12-27.63-56.65,0-15.88-16.91-28.34-32.79-28.34A28.72,28.72,0,0,0,69.1,101.55,28.67,28.67,0,0,1,72.88,127c-18.79,14.52-33,44.72-37.51,81.49H153.82C152.3,196.07,156.87,184.43,153.35,173.88Z"/><path class="cls-2" d="M37.74,181.63C34.82,197.17,33.23,200,31,206.89c-2.58,7.8-5,22.28-1.37,24.51s16.81-9.19,25.54-19.54,13.8-79.77,13.8-79.77S43.4,151.53,37.74,181.63Z"/><path class="cls-3" d="M63.72,135.3c-15,16.44-33.56,67.87-26.71,87.49,4.66,13.35,13.74,0,36.4-3.6Z"/><ellipse class="cls-4" cx="76.57" cy="269.59" rx="17.01" ry="6.23"/><ellipse class="cls-4" cx="95.98" cy="273.87" rx="17.01" ry="6.23"/><path class="cls-2" d="M156.17,227.77c2.47-22.92,1.22-41.7-2.37-52.43-4.42-13.23-13.24-29.74-19.82-41.73h0c-.09-.16-.18-.31-.26-.47l-1.7-3.08h0c-1.86-3.38-3.45-6.25-4.57-8.39l-4.77-2.75-10.15-3.67L101,130.78a25.93,25.93,0,0,0-16.79-6,25.13,25.13,0,0,0-12.52,3.32l-.25-.1c-.43.34-.85.69-1.27,1a25.68,25.68,0,0,0-6.46,6.23C48.75,151.74,37,195.25,37,209.4s7.62,66.65,54.19,66.65S153.7,250.69,156.17,227.77Z"/><path class="cls-3" d="M132,130.8s-11.65,15.37-15.34,26.57-4.74,13.75-4.76,38.46c0,19.64,17.24,47.68,23.53,41.2,8.08-8.32,2.8-14.81.64-30.76s-2-19.05-2-19.05A36,36,0,0,0,137,206.27c5.23,12.27,8.13,17.76,8.13,17.76s13.76-14.8,10.88-36.64c-2.22-16.85-4.22-18.61-7.8-26.77C143.44,149.89,132,130.8,132,130.8Z"/><path class="cls-2" d="M132,130.06s-11.84,19.57-13.78,27.33-4.6,13.33-4.61,37.29c0,19,18.45,47.54,22.81,39.95s0-14.35-2.1-29.82.82-18.48.82-18.48a35,35,0,0,0,2.74,18.48c5.07,11.9,4.44,32.93,4.44,32.93s16.78-30.07,14-51.24c-2.16-16.34-4.1-18-7.58-26C144.19,150.14,132,130.06,132,130.06Z"/><polygon class="cls-4" points="73.03 96.89 52.04 92.94 89.29 107.51 73.03 96.89"/><polygon class="cls-4" points="73.03 96.89 52.04 92.94 81.19 92.94 89.29 107.51 73.03 96.89"/><polygon class="cls-3" points="81.19 92.94 89.29 107.51 104 102.74 81.19 92.94"/></svg>