<svg id="圖層_1" data-name="圖層 1" xmlns="http://www.w3.org/2000/svg" viewBox="0 0 169 285"><defs><style>.cls-1{fill:#fff;}.cls-2{fill:#5693c2;}.cls-3{fill:#2a4254;}.cls-4{fill:#e48958;}.cls-5{fill:#f7f7f7;}.cls-6{fill:#435868;}.cls-7{fill:#ffe145;}</style></defs><title>element</title><path class="cls-1" d="M155.92,144.55a1.5,1.5,0,0,1-1.38-.93c-2.27-5.44-4.07-15.79-6.15-27.78-2.4-13.83-5.12-29.51-9.21-41.28-7.28-20.92-25.53-24.86-25.71-24.89a1.5,1.5,0,0,1-1.17-1.77,1.49,1.49,0,0,1,1.76-1.17c.82.16,20.09,4.26,27.95,26.84,4.18,12,6.92,27.81,9.34,41.76,2.05,11.8,3.82,22,6,27.14a1.5,1.5,0,0,1-.81,2A1.47,1.47,0,0,1,155.92,144.55Z"/><path class="cls-1" d="M153.05,147.42a1.51,1.51,0,0,1-1.39-.92c-2.27-5.45-4.06-15.8-6.14-27.79-2.4-13.83-5.12-29.5-9.22-41.28-7.3-21-25.52-24.85-25.7-24.89a1.5,1.5,0,1,1,.59-2.94c.81.16,20.09,4.26,27.95,26.85,4.17,12,6.91,27.81,9.33,41.75,2.05,11.81,3.82,22,6,27.14a1.51,1.51,0,0,1-.8,2A1.7,1.7,0,0,1,153.05,147.42Z"/><path class="cls-1" d="M161,166.65H35.37a1.53,1.53,0,0,1-1.13-.51,1.49,1.49,0,0,1-.36-1.18c4.5-36.49,18.59-67.17,37.71-82.2A27.14,27.14,0,0,0,67.87,59.1a1.51,1.51,0,0,1,0-1.7A30.23,30.23,0,0,1,92.93,44.08c16.16,0,34.23,12.72,34.29,29.75.27,1.06,3,5.94,5.8,11.09,6.71,12.16,16.86,30.54,21.75,45.17A180.4,180.4,0,0,1,162.51,165a1.51,1.51,0,0,1-1.49,1.69Zm-124-3H159.32a175.64,175.64,0,0,0-7.4-32.61c-4.8-14.36-14.86-32.6-21.52-44.67-5-9.06-6.18-11.3-6.18-12.45,0-15.36-16.52-26.84-31.29-26.84a27.24,27.24,0,0,0-22,11.18,30,30,0,0,1,4.89,16.47,30.34,30.34,0,0,1-1.5,9.39,1.49,1.49,0,0,1-.51.72C55.39,99.06,41.73,128.44,37.07,163.65ZM127.22,73.9v0Z"/><path class="cls-1" d="M89.29,65.7a1.49,1.49,0,0,1-.55-.1L51.49,51a1.5,1.5,0,0,1,.83-2.87l21,4a1.58,1.58,0,0,1,.54.22L90.11,63a1.5,1.5,0,0,1-.82,2.75ZM67.51,54.07l8.78,3.43L72.46,55Z"/><path class="cls-1" d="M73,55.08l-.28,0-21-4a1.5,1.5,0,0,1,.28-3H81.19A1.5,1.5,0,0,1,81.84,51l-8.16,4A1.47,1.47,0,0,1,73,55.08Zm-4.94-3.95,4.73.89,1.84-.89Z"/><path class="cls-1" d="M128.39,81.09H107.1a1.51,1.51,0,0,1-1.3-.75,1.49,1.49,0,0,1,0-1.5l12.46-21.58a1.48,1.48,0,0,1,1.17-.75,1.52,1.52,0,0,1,1.28.53,26.15,26.15,0,0,1,6.51,16.79,36.49,36.49,0,0,0,2.49,5,1.51,1.51,0,0,1-1.32,2.21Zm-18.69-3h16.2c-1.41-2.71-1.68-3.55-1.68-4.17a22.69,22.69,0,0,0-4.47-13.24Zm17.52-4.19v0Z"/><path class="cls-1" d="M127.93,166.65H36.07a1.53,1.53,0,0,1-1.13-.51,1.51,1.51,0,0,1-.36-1.18C38,138.51,46.52,116.4,63.07,91A26.37,26.37,0,0,1,84.94,79.39c7.26,0,12,2.35,17.38,6.14,3.63,2.58,7.36,6.88,11.09,12.78l.21.33c4.4,6.73,5.4,17.06,6.46,28,.88,9.17,1.8,18.66,4.68,27.27h0a37.06,37.06,0,0,0,2,4.43,32.31,32.31,0,0,1,2.65,6.45,1.48,1.48,0,0,1-.28,1.28A1.51,1.51,0,0,1,127.93,166.65Zm-90.15-3h88.1c-.51-1.33-1.18-2.66-1.83-4a38.65,38.65,0,0,1-2.13-4.82h0c-3-8.93-3.93-18.59-4.83-27.93-1-10.56-2-20.54-6-26.65l-.24-.37c-3.52-5.57-7-9.58-10.29-11.93-5.82-4.13-9.91-5.59-15.64-5.59A23.37,23.37,0,0,0,65.57,92.68C49.65,117.09,41.28,138.42,37.78,163.65Z"/><path class="cls-1" d="M71.94,278c-9.79,0-19.7-2.8-19.7-8.16s9.91-8.17,19.7-8.17,19.7,2.81,19.7,8.17S81.73,278,71.94,278Zm0-13.33c-10.19,0-16.7,3.06-16.7,5.17S61.75,275,71.94,275s16.7-3.05,16.7-5.16S82.14,264.68,71.94,264.68Z"/><path class="cls-1" d="M92.71,282.6c-9.79,0-19.7-2.81-19.7-8.17s9.91-8.17,19.7-8.17,19.7,2.81,19.7,8.17S102.5,282.6,92.71,282.6Zm0-13.34c-10.2,0-16.7,3.06-16.7,5.17s6.5,5.17,16.7,5.17,16.7-3.06,16.7-5.17S102.9,269.26,92.71,269.26Z"/><path class="cls-1" d="M31.23,214.59a3.22,3.22,0,0,1-1.69-.43c-5.93-3.45-2.35-25.59-1.14-30.89.36-1.59.71-3,1-4.39,1.44-5.87,2.68-10.94,4.22-26,3.73-36.36,29.64-62,29.9-62.28a1.5,1.5,0,0,1,2.55,1.07c0,3.4-.11,83.52-8.81,96.78C52.55,195.69,38.44,214.59,31.23,214.59Zm5.42-61.4c-1.57,15.26-2.83,20.42-4.29,26.4-.34,1.36-.68,2.77-1,4.35-2.66,11.7-2.8,26.16-.27,27.63,2.14,1.23,13.63-9.35,23.74-24.76C61.08,177.22,63,125,63.1,95.5c-6.54,7.42-23.53,29.19-26.45,57.69Z"/><path class="cls-1" d="M96.82,279.47a67.79,67.79,0,0,1-29-6.47c-13-6.25-22.18-16.46-25.75-28.73l-1.77-6c-7.07-24-10-33.88-6.11-73.61,3.53-36.22,9.18-44.47,21.55-62.54,2.14-3.11,4.55-6.64,7.16-10.63A1.51,1.51,0,0,1,65,91c6.25,3.75,12.42,7.78,18.39,11.68,11.48,7.51,23.36,15.27,35.85,21a1.5,1.5,0,0,1,.86,1.22l.15,1.45c.88,9.15,1.8,18.61,4.67,27.2.41.84,4.58,1.48,6.83,1.82,4.49.69,8.73,1.35,9.53,4.1,1.08,2.67,16.78,42.53,8.07,71.35-6.64,22-12.38,37-30.86,44.61A57,57,0,0,1,96.82,279.47ZM64.66,94.33c-2.32,3.52-4.48,6.66-6.4,9.47-12.07,17.63-17.58,25.68-21,61.13-3.82,39.15-1.14,48.22,6,72.47l1.77,6c4.27,14.67,15.5,22.71,24.17,26.87,15.17,7.28,34.07,8.21,48.15,2.39,17.31-7.17,22.55-20.91,29.14-42.71,8.52-28.19-7.85-69-8-69.43a1.59,1.59,0,0,1-.07-.2c-.23-.92-5.05-1.66-7.11-2-4.49-.69-8.36-1.29-9.22-3.84-3-8.91-3.91-18.55-4.81-27.86l-.06-.6c-12.4-5.8-24.11-13.46-35.45-20.87C76.17,101.58,70.44,97.84,64.66,94.33Z"/><path class="cls-1" d="M127.93,166.65H36.07a1.53,1.53,0,0,1-1.13-.51,1.51,1.51,0,0,1-.36-1.18C38,138.51,46.52,116.4,63.07,91A26.37,26.37,0,0,1,84.94,79.39c7.26,0,12,2.35,17.38,6.14,3.63,2.58,7.36,6.88,11.09,12.78l.21.33c4.4,6.73,5.4,17.06,6.46,28,.88,9.17,1.8,18.66,4.68,27.27h0a37.06,37.06,0,0,0,2,4.43,32.31,32.31,0,0,1,2.65,6.45,1.48,1.48,0,0,1-.28,1.28A1.51,1.51,0,0,1,127.93,166.65Zm-90.15-3h88.1c-.51-1.33-1.18-2.66-1.83-4a38.65,38.65,0,0,1-2.13-4.82h0c-3-8.93-3.93-18.59-4.83-27.93-1-10.56-2-20.54-6-26.65l-.24-.37c-3.52-5.57-7-9.58-10.29-11.93-5.82-4.13-9.91-5.59-15.64-5.59A23.37,23.37,0,0,0,65.57,92.68C49.65,117.09,41.28,138.42,37.78,163.65Z"/><path class="cls-1" d="M146.9,234.35a1.22,1.22,0,0,1-.32,0,1.49,1.49,0,0,1-1.18-1.5c0-.27.57-27.87-4.41-43.24-.34-1-.64-2.06-.91-3.07.07.79.15,1.61.24,2.45.67,6.54,1.57,11.84,2.36,16.52,1.69,10,2.81,16.6-.36,23.86-1.22,2.77-3.29,2.66-4.12,2.48-7.91-1.65-21.83-34.39-21.81-56.15,0-31.67,4.52-49.19,4.71-49.92l11.23-36.2-.93-1.69A1.5,1.5,0,1,1,134,86.4c5.57,10.1,15.93,28.9,20.79,43.42.6,1.79,1.15,3.34,1.67,4.79,2.55,7.14,4.23,11.85,6,30,2.83,28.18-13.56,67.15-14.26,68.79A1.5,1.5,0,0,1,146.9,234.35ZM134.34,93.2,124,126.56c0,.11-4.58,17.86-4.59,49.1,0,21.83,14.07,52.1,19.42,53.22.14,0,.39.08.76-.76,2.81-6.43,1.81-12.35.15-22.15-.8-4.72-1.7-10.08-2.39-16.71-2.12-20.53.77-25.13,1.11-25.59a1.5,1.5,0,0,1,2.69,1.1,59,59,0,0,0,2.71,23.87c3.48,10.74,4.35,26.67,4.54,36.21,4.67-12.81,13.21-39.66,11.18-59.91-1.79-17.81-3.42-22.39-5.9-29.32-.52-1.47-1.08-3-1.69-4.85C148,118.77,140,103.66,134.34,93.2Z"/><path class="cls-1" d="M71.94,278c-9.79,0-19.7-2.8-19.7-8.16s9.91-8.17,19.7-8.17,19.7,2.81,19.7,8.17S81.73,278,71.94,278Zm0-13.33c-10.19,0-16.7,3.06-16.7,5.17S61.75,275,71.94,275s16.7-3.05,16.7-5.16S82.14,264.68,71.94,264.68Z"/><path class="cls-1" d="M92.71,282.6c-9.79,0-19.7-2.81-19.7-8.17s9.91-8.17,19.7-8.17,19.7,2.81,19.7,8.17S102.5,282.6,92.71,282.6Zm0-13.34c-10.2,0-16.7,3.06-16.7,5.17s6.5,5.17,16.7,5.17,16.7-3.06,16.7-5.17S102.9,269.26,92.71,269.26Z"/><path class="cls-1" d="M31.23,214.59a3.22,3.22,0,0,1-1.69-.43c-5.93-3.45-2.35-25.59-1.14-30.89.36-1.59.71-3,1-4.39,1.44-5.87,2.68-10.94,4.22-26,3.73-36.36,29.64-62,29.9-62.28a1.5,1.5,0,0,1,2.55,1.07c0,3.4-.11,83.52-8.81,96.78C52.55,195.69,38.44,214.59,31.23,214.59Zm5.42-61.4c-1.57,15.26-2.83,20.42-4.29,26.4-.34,1.36-.68,2.77-1,4.35-2.66,11.7-2.8,26.16-.27,27.63,2.14,1.23,13.63-9.35,23.74-24.76C61.08,177.22,63,125,63.1,95.5c-6.54,7.42-23.53,29.19-26.45,57.69Z"/><path class="cls-1" d="M96.82,279.47a67.79,67.79,0,0,1-29-6.47c-13-6.25-22.18-16.46-25.75-28.73l-1.77-6c-7.07-24-10-33.88-6.11-73.61,3.53-36.22,9.18-44.47,21.55-62.54,2.14-3.11,4.55-6.64,7.16-10.63A1.51,1.51,0,0,1,65,91c6.25,3.75,12.42,7.78,18.39,11.68,11.48,7.51,23.36,15.27,35.85,21a1.5,1.5,0,0,1,.86,1.22l.15,1.45c.88,9.15,1.8,18.61,4.67,27.2.41.84,4.58,1.48,6.83,1.82,4.49.69,8.73,1.35,9.53,4.1,1.08,2.67,16.78,42.53,8.07,71.35-6.64,22-12.38,37-30.86,44.61A57,57,0,0,1,96.82,279.47ZM64.66,94.33c-2.32,3.52-4.48,6.66-6.4,9.47-12.07,17.63-17.58,25.68-21,61.13-3.82,39.15-1.14,48.22,6,72.47l1.77,6c4.27,14.67,15.5,22.71,24.17,26.87,15.17,7.28,34.07,8.21,48.15,2.39,17.31-7.17,22.55-20.91,29.14-42.71,8.52-28.19-7.85-69-8-69.43a1.59,1.59,0,0,1-.07-.2c-.23-.92-5.05-1.66-7.11-2-4.49-.69-8.36-1.29-9.22-3.84-3-8.91-3.91-18.55-4.81-27.86l-.06-.6c-12.4-5.8-24.11-13.46-35.45-20.87C76.17,101.58,70.44,97.84,64.66,94.33Z"/><path class="cls-1" d="M127.93,166.65H36.07a1.53,1.53,0,0,1-1.13-.51,1.51,1.51,0,0,1-.36-1.18C38,138.51,46.52,116.4,63.07,91A26.37,26.37,0,0,1,84.94,79.39c7.26,0,12,2.35,17.38,6.14,3.63,2.58,7.36,6.88,11.09,12.78l.21.33c4.4,6.73,5.4,17.06,6.46,28,.88,9.17,1.8,18.66,4.68,27.27h0a37.06,37.06,0,0,0,2,4.43,32.31,32.31,0,0,1,2.65,6.45,1.48,1.48,0,0,1-.28,1.28A1.51,1.51,0,0,1,127.93,166.65Zm-90.15-3h88.1c-.51-1.33-1.18-2.66-1.83-4a38.65,38.65,0,0,1-2.13-4.82h0c-3-8.93-3.93-18.59-4.83-27.93-1-10.56-2-20.54-6-26.65l-.24-.37c-3.52-5.57-7-9.58-10.29-11.93-5.82-4.13-9.91-5.59-15.64-5.59A23.37,23.37,0,0,0,65.57,92.68C49.65,117.09,41.28,138.42,37.78,163.65Z"/><path class="cls-1" d="M146.9,234.35a1.22,1.22,0,0,1-.32,0,1.49,1.49,0,0,1-1.18-1.5c0-.27.57-27.87-4.41-43.24-.34-1-.64-2.06-.91-3.07.07.79.15,1.61.24,2.45.67,6.54,1.57,11.84,2.36,16.52,1.69,10,2.81,16.6-.36,23.86-1.22,2.77-3.29,2.66-4.12,2.48-7.91-1.65-21.83-34.39-21.81-56.15,0-31.67,4.52-49.19,4.71-49.92l11.23-36.2-.93-1.69A1.5,1.5,0,1,1,134,86.4c5.57,10.1,15.93,28.9,20.79,43.42.6,1.79,1.15,3.34,1.67,4.79,2.55,7.14,4.23,11.85,6,30,2.83,28.18-13.56,67.15-14.26,68.79A1.5,1.5,0,0,1,146.9,234.35ZM134.34,93.2,124,126.56c0,.11-4.58,17.86-4.59,49.1,0,21.83,14.07,52.1,19.42,53.22.14,0,.39.08.76-.76,2.81-6.43,1.81-12.35.15-22.15-.8-4.72-1.7-10.08-2.39-16.71-2.12-20.53.77-25.13,1.11-25.59a1.5,1.5,0,0,1,2.69,1.1,59,59,0,0,0,2.71,23.87c3.48,10.74,4.35,26.67,4.54,36.21,4.67-12.81,13.21-39.66,11.18-59.91-1.79-17.81-3.42-22.39-5.9-29.32-.52-1.47-1.08-3-1.69-4.85C148,118.77,140,103.66,134.34,93.2Z"/><path class="cls-1" d="M71.94,278c-9.79,0-19.7-2.8-19.7-8.16s9.91-8.17,19.7-8.17,19.7,2.81,19.7,8.17S81.73,278,71.94,278Zm0-13.33c-10.19,0-16.7,3.06-16.7,5.17S61.75,275,71.94,275s16.7-3.05,16.7-5.16S82.14,264.68,71.94,264.68Z"/><path class="cls-1" d="M92.71,282.6c-9.79,0-19.7-2.81-19.7-8.17s9.91-8.17,19.7-8.17,19.7,2.81,19.7,8.17S102.5,282.6,92.71,282.6Zm0-13.34c-10.2,0-16.7,3.06-16.7,5.17s6.5,5.17,16.7,5.17,16.7-3.06,16.7-5.17S102.9,269.26,92.71,269.26Z"/><path class="cls-1" d="M31.23,214.59a3.22,3.22,0,0,1-1.69-.43c-5.93-3.45-2.35-25.59-1.14-30.89.36-1.59.71-3,1-4.39,1.44-5.87,2.68-10.94,4.22-26,3.73-36.36,29.64-62,29.9-62.28a1.5,1.5,0,0,1,2.55,1.07c0,3.4-.11,83.52-8.81,96.78C52.55,195.69,38.44,214.59,31.23,214.59Zm5.42-61.4c-1.57,15.26-2.83,20.42-4.29,26.4-.34,1.36-.68,2.77-1,4.35-2.66,11.7-2.8,26.16-.27,27.63,2.14,1.23,13.63-9.35,23.74-24.76C61.08,177.22,63,125,63.1,95.5c-6.54,7.42-23.53,29.19-26.45,57.69Z"/><path class="cls-1" d="M96.82,279.47a67.79,67.79,0,0,1-29-6.47c-13-6.25-22.18-16.46-25.75-28.73l-1.77-6c-7.07-24-10-33.88-6.11-73.61,3.53-36.22,9.18-44.47,21.55-62.54,2.14-3.11,4.55-6.64,7.16-10.63A1.51,1.51,0,0,1,65,91c6.25,3.75,12.42,7.78,18.39,11.68,11.48,7.51,23.36,15.27,35.85,21a1.5,1.5,0,0,1,.86,1.22l.15,1.45c.88,9.15,1.8,18.61,4.67,27.2.41.84,4.58,1.48,6.83,1.82,4.49.69,8.73,1.35,9.53,4.1,1.08,2.67,16.78,42.53,8.07,71.35-6.64,22-12.38,37-30.86,44.61A57,57,0,0,1,96.82,279.47ZM64.66,94.33c-2.32,3.52-4.48,6.66-6.4,9.47-12.07,17.63-17.58,25.68-21,61.13-3.82,39.15-1.14,48.22,6,72.47l1.77,6c4.27,14.67,15.5,22.71,24.17,26.87,15.17,7.28,34.07,8.21,48.15,2.39,17.31-7.17,22.55-20.91,29.14-42.71,8.52-28.19-7.85-69-8-69.43a1.59,1.59,0,0,1-.07-.2c-.23-.92-5.05-1.66-7.11-2-4.49-.69-8.36-1.29-9.22-3.84-3-8.91-3.91-18.55-4.81-27.86l-.06-.6c-12.4-5.8-24.11-13.46-35.45-20.87C76.17,101.58,70.44,97.84,64.66,94.33Z"/><path class="cls-1" d="M127.93,166.65H36.07a1.53,1.53,0,0,1-1.13-.51,1.51,1.51,0,0,1-.36-1.18C38,138.51,46.52,116.4,63.07,91A26.37,26.37,0,0,1,84.94,79.39c7.26,0,12,2.35,17.38,6.14,3.63,2.58,7.36,6.88,11.09,12.78l.21.33c4.4,6.73,5.4,17.06,6.46,28,.88,9.17,1.8,18.66,4.68,27.27h0a37.06,37.06,0,0,0,2,4.43,32.31,32.31,0,0,1,2.65,6.45,1.48,1.48,0,0,1-.28,1.28A1.51,1.51,0,0,1,127.93,166.65Zm-90.15-3h88.1c-.51-1.33-1.18-2.66-1.83-4a38.65,38.65,0,0,1-2.13-4.82h0c-3-8.93-3.93-18.59-4.83-27.93-1-10.56-2-20.54-6-26.65l-.24-.37c-3.52-5.57-7-9.58-10.29-11.93-5.82-4.13-9.91-5.59-15.64-5.59A23.37,23.37,0,0,0,65.57,92.68C49.65,117.09,41.28,138.42,37.78,163.65Z"/><path class="cls-1" d="M146.9,234.35a1.22,1.22,0,0,1-.32,0,1.49,1.49,0,0,1-1.18-1.5c0-.27.57-27.87-4.41-43.24-.34-1-.64-2.06-.91-3.07.07.79.15,1.61.24,2.45.67,6.54,1.57,11.84,2.36,16.52,1.69,10,2.81,16.6-.36,23.86-1.22,2.77-3.29,2.66-4.12,2.48-7.91-1.65-21.83-34.39-21.81-56.15,0-31.67,4.52-49.19,4.71-49.92l11.23-36.2-.93-1.69A1.5,1.5,0,1,1,134,86.4c5.57,10.1,15.93,28.9,20.79,43.42.6,1.79,1.15,3.34,1.67,4.79,2.55,7.14,4.23,11.85,6,30,2.83,28.18-13.56,67.15-14.26,68.79A1.5,1.5,0,0,1,146.9,234.35ZM134.34,93.2,124,126.56c0,.11-4.58,17.86-4.59,49.1,0,21.83,14.07,52.1,19.42,53.22.14,0,.39.08.76-.76,2.81-6.43,1.81-12.35.15-22.15-.8-4.72-1.7-10.08-2.39-16.71-2.12-20.53.77-25.13,1.11-25.59a1.5,1.5,0,0,1,2.69,1.1,59,59,0,0,0,2.71,23.87c3.48,10.74,4.35,26.67,4.54,36.21,4.67-12.81,13.21-39.66,11.18-59.91-1.79-17.81-3.42-22.39-5.9-29.32-.52-1.47-1.08-3-1.69-4.85C148,118.77,140,103.66,134.34,93.2Z"/><path class="cls-1" d="M116.13,56.11a1.52,1.52,0,0,1-.51-.09c-.11,0-11.15-4.06-16.81-5.64-5.89-1.66-7.94-3.2-8.16-3.37a1.5,1.5,0,0,1-.47-1.7l2.64-7A1.5,1.5,0,0,1,95.47,38l.49.73,6.44-6.35a1.49,1.49,0,0,1,1.45-.38,1.51,1.51,0,0,1,1.05,1.07l2.61,10,10.94,3.71a1.5,1.5,0,0,1,1,1.83L117.58,55a1.5,1.5,0,0,1-.77.92A1.46,1.46,0,0,1,116.13,56.11ZM93.43,45.19a33.08,33.08,0,0,0,6.2,2.3c4.55,1.28,12.24,4,15.5,5.16l1-3.49-10.35-3.5a1.53,1.53,0,0,1-1-1l-2.16-8.29-5.88,5.8a1.47,1.47,0,0,1-1.2.42,1.53,1.53,0,0,1-1-.48Z"/><path class="cls-1" d="M150.17,150.3a1.5,1.5,0,0,1-1.38-.93c-2.27-5.45-4.07-15.8-6.15-27.78-2.4-13.83-5.12-29.51-9.21-41.28-7.3-21-25.52-24.86-25.71-24.89a1.5,1.5,0,0,1,.59-3c.82.17,20.1,4.26,27.95,26.85,4.18,12,6.92,27.81,9.34,41.76,2.05,11.8,3.82,22,6,27.14a1.5,1.5,0,0,1-.81,2A1.47,1.47,0,0,1,150.17,150.3Z"/><path class="cls-1" d="M147.3,153.17a1.5,1.5,0,0,1-1.38-.92c-2.27-5.45-4.07-15.8-6.15-27.79-2.4-13.83-5.12-29.5-9.22-41.28-7.29-21-25.52-24.85-25.7-24.89a1.5,1.5,0,1,1,.59-2.94c.82.16,20.09,4.26,27.95,26.84,4.17,12,6.92,27.82,9.34,41.76,2,11.81,3.81,22,6,27.14a1.51,1.51,0,0,1-1.39,2.08Z"/><path class="cls-2" d="M155.29,143.31c-2.24-5.36-4-15.67-6.1-27.61-2.4-13.86-5.13-29.57-9.24-41.41-7.44-21.38-26.13-25.38-26.32-25.42l.27-1.35c.2,0,19.64,4.17,27.34,26.32,4.16,11.94,6.89,27.71,9.31,41.63,2,11.85,3.83,22.09,6,27.31Z"/><path class="cls-2" d="M152.42,146.18c-2.24-5.36-4-15.67-6.1-27.6-2.41-13.87-5.13-29.58-9.25-41.41C129.62,55.75,111,51.78,110.76,51.75L111,50.4c.19,0,19.63,4.16,27.34,26.31,4.15,12,6.89,27.72,9.3,41.63,2.06,11.86,3.84,22.09,6,27.32Z"/><path class="cls-3" d="M153.35,130.57c-7.45-22.28-27.63-54.12-27.63-56.65,0-15.88-16.91-28.34-32.79-28.34A28.72,28.72,0,0,0,69.1,58.24a28.67,28.67,0,0,1,3.78,25.42c-18.79,14.52-33,44.72-37.51,81.49H161A178.75,178.75,0,0,0,153.35,130.57Z"/><polygon class="cls-4" points="73.03 53.58 52.04 49.63 89.29 64.2 73.03 53.58"/><polygon class="cls-3" points="73.03 53.58 52.04 49.63 81.19 49.63 73.03 53.58"/><path class="cls-4" d="M125.72,73.92A24.66,24.66,0,0,0,119.56,58l-5.46,9.46-7,12.12h21.29C126.74,76.52,125.72,74.48,125.72,73.92Z"/><path class="cls-5" d="M123.34,154.39c-6.44-19.27-3.28-43.15-11-54.93-.69-1-5.26-8.68-10.92-12.7s-10.1-5.87-16.51-5.87a24.83,24.83,0,0,0-20.61,11c-17.67,27.09-25.12,49-28.26,73.31h91.86C127,161.44,124.5,157.84,123.34,154.39Z"/><ellipse class="cls-6" cx="71.94" cy="269.85" rx="18.2" ry="6.67"/><ellipse class="cls-6" cx="92.71" cy="274.43" rx="18.2" ry="6.67"/><path class="cls-6" d="M35.16,153c-1.92,18.72-3.4,22.2-5.3,30.57-2.16,9.49-3.64,26.9.43,29.27S47.52,200.62,56,187.63s8.57-96,8.57-96S38.87,116.79,35.16,153Z"/><path class="cls-5" d="M139.83,160c-.92-3.7-15.21-2.48-16.36-5.93-3.09-9.21-4-19.49-4.89-29-19-8.78-36-21.75-54.38-32.77-17.32,26.44-24.36,30.26-28.48,72.49-4.15,42.56-.58,50.19,7.83,79.06,8.8,30.22,49.28,40.59,74.34,30.22,17.4-7.2,23-20.47,30-43.65C156.66,201.39,139.83,160,139.83,160Z"/><path class="cls-5" d="M123.34,154.39c-6.44-19.27-3.28-43.15-11-54.93-.69-1-5.26-8.68-10.92-12.7s-10.1-5.87-16.51-5.87a24.83,24.83,0,0,0-20.61,11c-17.67,27.09-25.12,49-28.26,73.31h91.86C127,161.44,124.5,157.84,123.34,154.39Z"/><path class="cls-3" d="M132.71,87.12c6.55,11.87,16.07,29.36,20.69,43.18,3.51,10.52,5.47,12.78,7.65,34.49,2.82,28.12-14.15,68.06-14.15,68.06s.64-27.94-4.48-43.74a60.17,60.17,0,0,1-2.78-24.55s-2.94,4-.82,24.55,6.53,29.54,2.12,39.61-23.07-27.77-23-53.06c0-31.84,4.66-49.54,4.66-49.54L134,89.38"/><path class="cls-7" d="M118,48.2l-11.7-4-.91-3.49-1.9-7.31-5.38,5.3-2.35,2.32-1.49-2.23-2.64,7s1.85,1.48,7.63,3.1,16.91,5.68,16.91,5.68Z"/><path class="cls-2" d="M149.54,149.06c-2.23-5.36-4-15.67-6.09-27.61C141,107.59,138.31,91.88,134.2,80c-7.45-21.42-26.13-25.38-26.32-25.42l.27-1.35c.2,0,19.64,4.17,27.34,26.32,4.16,11.94,6.89,27.71,9.31,41.63,2.06,11.85,3.83,22.09,6,27.31Z"/><path class="cls-2" d="M146.67,151.93c-2.24-5.36-4-15.67-6.1-27.61-2.4-13.86-5.13-29.57-9.25-41.41C123.87,61.5,105.2,57.53,105,57.49l.27-1.34c.19,0,19.64,4.16,27.34,26.31,4.15,12,6.89,27.72,9.3,41.63,2.06,11.86,3.84,22.09,6,27.32Z"/></svg>